<svg width="500" height="500" viewBox="0 0 500 500" fill="none" xmlns="http://www.w3.org/2000/svg">
<path d="M249.979 498.328C218.422 498.328 188.979 481.261 167.802 451.589C162.448 452.261 157.172 452.599 151.979 452.599C119.13 452.599 90.3906 438.641 73.1302 414.313C58.2083 393.271 52.7292 366.802 56.9688 337.849C21.8906 316.438 1.67188 284.958 1.67188 250C1.67188 215.042 21.8906 183.563 56.9688 162.151C52.7396 133.198 58.2083 106.729 73.1302 85.6876C90.3906 61.3595 119.13 47.4115 151.979 47.4115C157.172 47.4115 162.448 47.7501 167.802 48.422C188.979 18.7501 218.422 1.68237 249.979 1.68237C282.719 1.68237 312.729 19.6824 334.01 51.0626C344.391 48.6407 354.578 47.4324 364.5 47.4324C398.208 47.4324 427.37 62.0001 444.521 87.4115C460.042 110.412 464.469 140.37 457.589 172.271C483.75 193 498.302 220.328 498.302 250.011C498.302 279.688 483.75 307.021 457.589 327.75C464.479 359.662 460.052 389.62 444.531 412.62C427.38 438.021 398.219 452.589 364.51 452.589C364.5 452.589 364.5 452.589 364.5 452.589C354.578 452.589 344.391 451.37 334.01 448.958C312.729 480.318 282.719 498.328 249.979 498.328Z" fill="white"/>
<path d="M249.979 500C218.24 500 188.813 483.448 167.021 453.359C127.349 458.031 91.9375 443.688 71.7708 415.271C56.8698 394.26 51.1406 367.802 55.1719 338.688C20.0885 316.948 0 284.672 0 250C0 215.328 20.0885 183.052 55.1719 161.302C51.151 132.182 56.8802 105.719 71.7708 84.7188C91.9323 56.2917 127.51 41.9792 167.021 46.6302C188.813 16.5521 218.24 0 249.979 0C282.813 0 312.88 17.4479 334.74 49.1719C344.839 46.901 354.849 45.75 364.5 45.75C398.771 45.75 428.438 60.5885 445.911 86.4688C461.339 109.328 466.13 139.531 459.438 171.609C485.589 192.661 499.979 220.469 499.979 250.01C499.979 279.552 485.589 307.359 459.438 328.411C466.13 360.49 461.339 390.698 445.911 413.552C428.438 439.422 398.781 454.26 364.51 454.26C354.859 454.26 344.849 453.109 334.74 450.839C312.88 482.552 282.813 500 249.979 500ZM168.578 449.813L169.161 450.62C190.359 480.313 219.063 496.661 249.979 496.661C281.99 496.661 311.349 479.38 332.62 448.01L333.271 447.063L334.391 447.318C344.63 449.698 354.76 450.911 364.51 450.911C397.661 450.911 426.318 436.609 443.151 411.672C458.219 389.328 462.781 359.651 455.958 328.089L455.74 327.068L456.563 326.422C482.411 305.938 496.641 278.802 496.641 249.99C496.641 221.182 482.411 194.042 456.563 173.563L455.74 172.911L455.958 171.891C462.771 140.328 458.219 110.651 443.141 88.3125C426.302 63.3698 397.641 49.0677 364.5 49.0677C354.75 49.0677 344.62 50.2813 334.38 52.6615L333.26 52.9219L332.609 51.9688C311.349 20.6198 282 3.33854 249.979 3.33854C219.063 3.33854 190.359 19.6875 169.161 49.3802L168.578 50.1875L167.589 50.0677C162.328 49.4115 157.078 49.0781 151.979 49.0781C119.682 49.0781 91.4323 62.7813 74.4896 86.6615C59.9115 107.208 54.4219 133.229 58.6198 161.911L58.7813 163L57.8385 163.568C22.6979 185.021 3.33854 215.708 3.33854 250C3.33854 284.292 22.6979 314.979 57.849 336.422L58.7917 336.99L58.6302 338.078C54.4323 366.76 59.9219 392.781 74.5 413.328C94.1094 440.969 128.781 454.771 167.589 449.922L168.578 449.813Z" fill="white"/>
<path d="M418.317 186.531C449.619 108.948 396.458 57.5312 318.088 91.4479C286.609 18.0885 217.541 16.3281 184.26 86.151C115.89 64.5885 71.4684 110.828 95.7393 180.13C14.8278 212.031 14.8278 287.979 95.7393 319.88C71.4684 389.182 115.89 435.422 184.26 413.859C217.552 483.682 286.619 481.911 318.088 408.562C396.458 442.479 449.609 391.052 418.317 313.469C480.432 281.042 480.432 218.958 418.317 186.531Z" fill="#F53E7E"/>
<path d="M251.5 338.682L173.401 260.578C156.24 243.422 156.24 215.609 173.401 198.448C190.563 181.292 218.37 181.292 235.532 198.448L251.5 214.422L264.729 201.188C281.891 184.031 309.698 184.031 326.86 201.188C344.021 218.349 344.021 246.162 326.86 263.318L251.5 338.682Z" fill="#FBFAF9"/>
</svg>
