<svg width="376" height="67" viewBox="0 0 376 67" fill="none" xmlns="http://www.w3.org/2000/svg">
<path d="M204.614 48.1277C202.451 48.1277 200.664 48.0681 199.258 47.9545C197.857 47.8408 196.753 47.6675 195.956 47.4293C195.165 47.1911 194.613 46.888 194.288 46.5198C193.964 46.1463 193.799 45.7024 193.799 45.1826C193.799 44.5276 193.907 43.9321 194.112 43.3907C194.328 42.8493 194.579 42.3026 194.858 41.7395C195.108 41.2361 195.359 40.6785 195.603 40.0775C195.854 39.4766 196.064 38.7512 196.229 37.9066C196.4 37.0567 196.486 36.0119 196.486 34.7667V31.1179C196.486 29.9702 196.394 29.012 196.207 28.2486C196.024 27.4853 195.802 26.8465 195.535 26.343C195.279 25.8287 195.017 25.3685 194.749 24.9679C194.482 24.5565 194.26 24.1396 194.072 23.7174C193.89 23.2843 193.799 22.77 193.799 22.1691C193.799 21.4707 193.958 20.8644 194.277 20.3555C194.59 19.8412 195.017 19.4135 195.546 19.0724C196.087 18.7314 196.69 18.4769 197.356 18.3145C198.034 18.1413 198.717 18.0601 199.406 18.0601C200.294 18.0601 201.13 18.19 201.927 18.4553C202.736 18.7259 203.39 19.1211 203.891 19.6463C204.403 20.166 204.654 20.8102 204.654 21.5844C204.654 22.1582 204.569 22.6725 204.386 23.1327C204.216 23.582 203.999 24.0368 203.743 24.4969C203.481 24.9463 203.225 25.4552 202.963 26.0236C202.713 26.592 202.497 27.2633 202.32 28.0429C202.144 28.8171 202.058 29.7536 202.058 30.8634V35.3514C202.058 37.3436 202.184 38.9569 202.434 40.2021C202.696 41.4418 203.123 42.3459 203.72 42.9306C204.318 43.5098 205.115 43.8022 206.111 43.8022C206.743 43.8022 207.278 43.6993 207.716 43.5044C208.166 43.3041 208.553 43.0497 208.895 42.7465C209.236 42.4379 209.566 42.1185 209.874 41.7828C210.164 41.458 210.46 41.1549 210.767 40.8679C211.086 40.581 211.439 40.3482 211.826 40.1696C212.213 39.9855 212.68 39.8935 213.226 39.8935C213.744 39.8935 214.217 40.0342 214.638 40.3157C215.065 40.5973 215.407 40.9708 215.663 41.4418C215.919 41.9074 216.05 42.4271 216.05 43.0009C216.05 44.0187 215.89 44.8687 215.577 45.5454C215.259 46.2112 214.689 46.731 213.864 47.1045C213.044 47.4726 211.889 47.7325 210.392 47.8895C208.895 48.0465 206.971 48.1277 204.614 48.1277ZM227.258 48.1277C225.772 48.1277 224.412 47.8949 223.182 47.4293C221.953 46.9638 220.894 46.3141 220.006 45.4696C219.118 44.625 218.435 43.6073 217.957 42.4163C217.473 41.2198 217.234 39.8989 217.234 38.4588C217.234 37.0946 217.461 35.7791 217.911 34.5123C218.372 33.24 219.061 32.0978 219.972 31.0854C220.883 30.0676 222.01 29.2664 223.353 28.6763C224.708 28.0916 226.273 27.7993 228.055 27.7993C229.438 27.7993 230.73 28.0267 231.948 28.4814C233.161 28.9362 234.231 29.5966 235.159 30.4628C236.087 31.329 236.815 32.3901 237.339 33.6407C237.863 34.8858 238.124 36.2988 238.124 37.8742C238.124 39.1789 237.902 40.4457 237.464 41.6692C237.037 42.8927 236.377 43.9862 235.483 44.9607C234.589 45.9243 233.462 46.6931 232.096 47.2669C230.742 47.8408 229.125 48.1277 227.258 48.1277ZM227.571 43.8401C228.362 43.8401 229.034 43.6452 229.597 43.2554C230.155 42.8602 230.616 42.3405 230.964 41.7016C231.316 41.0574 231.573 40.3482 231.732 39.5795C231.897 38.8053 231.977 38.042 231.977 37.2895C231.977 36.38 231.851 35.5571 231.601 34.81C231.356 34.0575 230.969 33.4566 230.44 33.0073C229.905 32.5525 229.216 32.3305 228.368 32.3305C227.389 32.3305 226.541 32.6121 225.823 33.1805C225.106 33.7489 224.543 34.496 224.144 35.4326C223.746 36.3637 223.552 37.3707 223.552 38.4588C223.552 39.482 223.706 40.4024 224.013 41.2198C224.321 42.0319 224.776 42.6707 225.374 43.1471C225.966 43.6073 226.7 43.8401 227.571 43.8401ZM249.645 48.1277C248.905 48.1277 248.313 48.0248 247.864 47.8191C247.425 47.6134 247.09 47.3373 246.851 46.9908C246.623 46.6389 246.446 46.2383 246.327 45.789C246.207 45.3342 246.111 44.8524 246.019 44.3435C245.815 43.0713 245.536 41.7829 245.183 40.4782C244.83 39.168 244.329 37.9175 243.674 36.7265C243.02 35.53 242.137 34.4852 241.033 33.5919C240.583 33.2292 240.236 32.8936 239.986 32.585C239.741 32.2764 239.621 31.8271 239.621 31.2424C239.621 30.7227 239.775 30.2517 240.082 29.8348C240.39 29.4126 240.794 29.0499 241.289 28.7521C241.796 28.4489 242.354 28.2161 242.974 28.0537C243.589 27.8805 244.209 27.7993 244.824 27.7993C245.513 27.7993 246.156 27.9021 246.742 28.1025C247.334 28.3028 247.807 28.6113 248.165 29.039C248.535 29.4559 248.718 29.981 248.718 30.6144C248.718 30.8743 248.683 31.1233 248.621 31.3669C248.564 31.6051 248.49 31.8433 248.405 32.0815C248.251 32.5417 248.143 33.0343 248.069 33.5703C248 34.1008 247.961 34.6584 247.961 35.2323C247.961 36.1526 248.052 37.0892 248.234 38.0366C248.422 38.984 248.695 39.8502 249.065 40.6406C249.258 41.0953 249.48 41.3173 249.731 41.3173C249.845 41.3173 249.947 41.2523 250.033 41.1224C250.124 40.987 250.215 40.8138 250.3 40.6027C250.835 39.2601 251.268 38.0691 251.604 37.0242C251.945 35.974 252.11 35.0266 252.11 34.182C252.11 33.8897 252.093 33.6028 252.048 33.3213C252.008 33.0452 251.922 32.7691 251.803 32.5038C251.712 32.2927 251.632 32.0544 251.564 31.7946C251.49 31.5347 251.456 31.2099 251.456 30.8201C251.456 30.2625 251.666 29.7536 252.093 29.3043C252.514 28.8441 253.078 28.4814 253.784 28.2053C254.495 27.9346 255.264 27.7993 256.089 27.7993C256.778 27.7993 257.421 27.9021 258.007 28.1025C258.599 28.3028 259.072 28.6113 259.43 29.039C259.789 29.4559 259.971 29.981 259.971 30.6144C259.971 31.2857 259.818 31.8596 259.516 32.3305C259.214 32.7907 258.827 33.2996 258.343 33.8464C257.996 34.2362 257.626 34.6855 257.233 35.189C256.84 35.6924 256.431 36.3042 256.004 37.0242C255.588 37.7334 255.19 38.5942 254.808 39.5957C254.398 40.6622 254.063 41.5988 253.795 42.4054C253.528 43.2067 253.306 43.9213 253.123 44.5492C252.924 45.253 252.742 45.8377 252.577 46.3033C252.418 46.758 252.23 47.1207 252.008 47.3914C251.78 47.6567 251.49 47.8408 251.12 47.9545C250.755 48.0681 250.26 48.1277 249.645 48.1277ZM271.003 48.1277C269.654 48.1277 268.39 47.9382 267.223 47.5538C266.051 47.1749 265.026 46.6281 264.149 45.9027C263.273 45.1718 262.59 44.2731 262.1 43.2175C261.616 42.151 261.377 40.9275 261.377 39.5578C261.377 38.4101 261.559 37.2678 261.918 36.131C262.282 34.9995 262.806 33.933 263.478 32.9315C264.155 31.9299 264.969 31.0421 265.925 30.2788C266.882 29.5046 267.952 28.8983 269.141 28.4652C270.325 28.0212 271.606 27.7993 272.989 27.7993C274.447 27.7993 275.71 28.0591 276.769 28.5843C277.845 29.1148 278.67 29.8078 279.251 30.6685C279.831 31.5293 280.133 32.4605 280.145 33.4674C280.162 34.3769 280.019 35.1511 279.723 35.7953C279.433 36.4287 279.029 36.9593 278.517 37.3815C278.016 37.8092 277.441 38.1503 276.792 38.4101C276.149 38.67 275.477 38.8811 274.777 39.0543C274.088 39.2168 273.416 39.3738 272.773 39.5145C272.067 39.6499 271.424 39.796 270.832 39.9476C270.24 40.0884 269.762 40.2887 269.386 40.5431C269.022 40.7921 268.823 41.1386 268.794 41.5771C268.749 42.3296 269.016 42.8927 269.591 43.277C270.166 43.656 270.878 43.8401 271.714 43.8401C272.671 43.8401 273.468 43.7264 274.111 43.4936C274.748 43.2608 275.278 42.9793 275.705 42.6436C276.137 42.308 276.513 41.9723 276.837 41.6367C277.162 41.301 277.475 41.0195 277.777 40.7867C278.078 40.5539 278.425 40.4403 278.818 40.4403C279.131 40.4403 279.422 40.5485 279.695 40.7651C279.968 40.9762 280.105 41.2902 280.105 41.7016C280.105 42.3567 279.877 43.0551 279.433 43.8022C278.995 44.5384 278.369 45.2368 277.56 45.9027C276.752 46.5577 275.796 47.0937 274.68 47.4997C273.576 47.9166 272.346 48.1277 271.003 48.1277ZM270.035 37.3707C270.553 37.3707 271.111 37.2462 271.703 36.9917C272.301 36.7427 272.864 36.4071 273.388 35.9902C273.917 35.5625 274.355 35.0915 274.691 34.5718C275.027 34.0467 275.198 33.5107 275.198 32.9639C275.198 32.3468 274.987 31.9137 274.572 31.6647C274.156 31.4102 273.616 31.2803 272.944 31.2803C272.358 31.2803 271.794 31.4102 271.253 31.6701C270.718 31.9299 270.24 32.2818 269.819 32.7257C269.403 33.1643 269.073 33.6569 268.84 34.1929C268.606 34.7342 268.492 35.2918 268.492 35.8657C268.492 36.8726 269.005 37.3707 270.035 37.3707ZM304.689 48.1277C303.91 48.1277 303.187 48.0248 302.526 47.8191C301.866 47.6134 301.325 47.294 300.921 46.8663C300.517 46.4278 300.312 45.8702 300.312 45.1826C300.312 44.5817 300.398 44.0295 300.563 43.5261C300.733 43.0172 300.95 42.5137 301.212 42.0048C301.468 41.4959 301.73 40.9383 301.986 40.3482C302.242 39.7527 302.458 39.0652 302.623 38.2964C302.794 37.5223 302.879 36.629 302.879 35.6112V26.9169C302.879 25.2494 302.794 24.0693 302.623 23.3763C302.458 22.6888 302.071 22.3423 301.468 22.3423C301.092 22.3423 300.745 22.4614 300.42 22.6888C300.102 22.9161 299.771 23.2031 299.43 23.555C299.094 23.896 298.735 24.2371 298.354 24.5781C297.973 24.9192 297.546 25.2061 297.068 25.4389C296.601 25.6663 296.066 25.78 295.462 25.78C294.517 25.78 293.851 25.4552 293.47 24.8055C293.089 24.1559 292.969 23.2734 293.111 22.1691C293.294 20.7831 293.817 19.7491 294.688 19.0724C295.559 18.3957 296.641 18.0601 297.933 18.0601C298.747 18.0601 299.453 18.0925 300.056 18.1575C300.659 18.2279 301.229 18.3091 301.758 18.3957C302.299 18.4769 302.874 18.5527 303.483 18.6231C304.097 18.688 304.809 18.7259 305.617 18.7259C306.278 18.7259 306.875 18.688 307.399 18.6231C307.928 18.5527 308.463 18.4769 308.993 18.3957C309.522 18.3091 310.097 18.2279 310.718 18.1575C311.338 18.0925 312.061 18.0601 312.892 18.0601C314.167 18.0601 315.186 18.3686 315.943 18.9912C316.711 19.6138 317.184 20.5883 317.355 21.92C317.525 23.1543 317.423 24.1017 317.064 24.773C316.712 25.4443 316.165 25.78 315.419 25.78C314.788 25.78 314.224 25.6663 313.734 25.4389C313.256 25.2061 312.818 24.9192 312.42 24.5781C312.032 24.2371 311.674 23.896 311.355 23.555C311.031 23.2031 310.712 22.9161 310.393 22.6888C310.08 22.4614 309.75 22.3423 309.414 22.3423C309.033 22.3423 308.742 22.4885 308.549 22.7862C308.355 23.0786 308.23 23.5604 308.173 24.2317C308.116 24.8976 308.088 25.7962 308.088 26.9169V35.3514C308.088 36.4883 308.167 37.4411 308.333 38.2152C308.509 38.984 308.714 39.6444 308.959 40.1912C309.203 40.7326 309.443 41.2252 309.682 41.6692C309.926 42.1077 310.131 42.5516 310.296 43.0118C310.467 43.4611 310.558 43.9862 310.558 44.5926C310.558 45.1502 310.387 45.6536 310.052 46.0976C309.71 46.5361 309.255 46.9042 308.68 47.202C308.105 47.5051 307.473 47.7325 306.784 47.8895C306.095 48.0465 305.395 48.1277 304.689 48.1277ZM328.216 48.1277C326.861 48.1277 325.603 47.9382 324.43 47.5538C323.258 47.1749 322.233 46.6281 321.356 45.9027C320.48 45.1718 319.797 44.2731 319.307 43.2175C318.829 42.151 318.59 40.9275 318.59 39.5578C318.59 38.4101 318.766 37.2678 319.125 36.131C319.495 34.9995 320.013 33.933 320.69 32.9315C321.368 31.9299 322.182 31.0421 323.138 30.2788C324.094 29.5046 325.164 28.8983 326.348 28.4652C327.532 28.0212 328.819 27.7993 330.196 27.7993C331.654 27.7993 332.917 28.0591 333.982 28.5843C335.052 29.1148 335.877 29.8078 336.458 30.6685C337.044 31.5293 337.34 32.4605 337.357 33.4674C337.369 34.3769 337.232 35.1511 336.936 35.7953C336.64 36.4287 336.236 36.9593 335.729 37.3815C335.223 37.8092 334.648 38.1503 334.005 38.4101C333.356 38.67 332.684 38.8811 331.989 39.0543C331.295 39.2168 330.629 39.3738 329.98 39.5145C329.28 39.6499 328.631 39.796 328.039 39.9476C327.453 40.0884 326.969 40.2887 326.599 40.5431C326.229 40.7921 326.035 41.1386 326.007 41.5771C325.961 42.3296 326.229 42.8927 326.804 43.277C327.379 43.656 328.085 43.8401 328.927 43.8401C329.883 43.8401 330.68 43.7264 331.318 43.4936C331.955 43.2608 332.49 42.9793 332.912 42.6436C333.344 42.308 333.72 41.9723 334.044 41.6367C334.369 41.301 334.682 41.0195 334.984 40.7867C335.285 40.5539 335.633 40.4403 336.031 40.4403C336.338 40.4403 336.629 40.5485 336.902 40.7651C337.175 40.9762 337.312 41.2902 337.312 41.7016C337.312 42.3567 337.09 43.0551 336.646 43.8022C336.207 44.5384 335.581 45.2368 334.767 45.9027C333.965 46.5577 333.003 47.0937 331.893 47.4997C330.783 47.9166 329.559 48.1277 328.216 48.1277ZM327.242 37.3707C327.76 37.3707 328.318 37.2462 328.916 36.9917C329.513 36.7427 330.071 36.4071 330.595 35.9902C331.13 35.5625 331.563 35.0915 331.898 34.5718C332.24 34.0467 332.405 33.5107 332.405 32.9639C332.405 32.3468 332.2 31.9137 331.785 31.6647C331.363 31.4102 330.823 31.2803 330.157 31.2803C329.565 31.2803 329.001 31.4102 328.46 31.6701C327.931 31.9299 327.453 32.2818 327.026 32.7257C326.61 33.1643 326.286 33.6569 326.047 34.1929C325.819 34.7342 325.7 35.2918 325.7 35.8657C325.7 36.8726 326.218 37.3707 327.242 37.3707ZM348.429 48.1277C346.698 48.1277 345.161 47.9382 343.829 47.5538C342.497 47.1749 341.45 46.6389 340.687 45.9352C339.936 45.2205 339.56 44.3706 339.56 43.3799C339.56 42.2484 339.913 41.3768 340.625 40.7651C341.342 40.1587 342.241 39.8556 343.311 39.8556C344.268 39.8556 345.013 40.0721 345.554 40.5106C346.089 40.9383 346.493 41.5338 346.761 42.2809C347.068 43.1796 347.41 43.8509 347.785 44.3056C348.155 44.7496 348.696 44.9715 349.402 44.9715C349.96 44.9715 350.461 44.782 350.899 44.4031C351.343 44.0295 351.565 43.3961 351.565 42.4975C351.565 41.9236 351.434 41.458 351.167 41.1061C350.899 40.7434 350.535 40.4511 350.068 40.2345C349.607 40.0072 349.089 39.8069 348.503 39.639C347.928 39.4604 347.313 39.2817 346.664 39.0922C345.941 38.8703 345.23 38.605 344.53 38.3073C343.824 38.0041 343.18 37.636 342.6 37.1975C342.014 36.7535 341.547 36.2067 341.188 35.5571C340.835 34.9075 340.659 34.1279 340.659 33.2076C340.659 32.2331 340.881 31.4048 341.325 30.7173C341.78 30.0297 342.384 29.4721 343.146 29.0498C343.915 28.6168 344.78 28.3028 345.736 28.1025C346.698 27.9021 347.683 27.7993 348.696 27.7993C350.051 27.7993 351.201 27.9184 352.157 28.1674C353.125 28.411 353.899 28.7413 354.485 29.1581C355.083 29.5696 355.521 30.0189 355.794 30.5061C356.068 30.9825 356.204 31.4698 356.204 31.957C356.204 32.6175 356.016 33.1643 355.641 33.6082C355.265 34.0467 354.793 34.3769 354.218 34.6043C353.643 34.8208 353.057 34.9345 352.453 34.9345C351.468 34.9345 350.768 34.718 350.358 34.2957C349.954 33.868 349.698 33.2671 349.584 32.5038C349.476 31.9137 349.265 31.4589 348.958 31.1395C348.651 30.8201 348.241 30.6577 347.729 30.6577C347.239 30.6577 346.784 30.8201 346.362 31.1395C345.941 31.4589 345.736 31.9137 345.736 32.5038C345.736 33.0614 345.884 33.527 346.186 33.8951C346.488 34.2686 346.898 34.5826 347.415 34.8425C347.933 35.1024 348.514 35.3297 349.163 35.5354C349.812 35.7358 350.478 35.9415 351.167 36.1526C351.952 36.3908 352.715 36.6723 353.466 36.9917C354.218 37.3166 354.906 37.7063 355.533 38.1611C356.159 38.6104 356.654 39.1626 357.018 39.8123C357.388 40.4565 357.57 41.2252 357.57 42.1185C357.57 44.1378 356.785 45.6428 355.208 46.6389C353.637 47.6296 351.377 48.1277 348.429 48.1277ZM364.458 48.1277C363.764 48.1277 363.126 48.0248 362.534 47.8191C361.948 47.6134 361.475 47.294 361.111 46.8663C360.752 46.4278 360.576 45.8702 360.576 45.1826C360.576 44.7333 360.65 44.3219 360.804 43.9537C360.957 43.5856 361.145 43.2283 361.361 42.8764C361.527 42.6003 361.697 42.2917 361.868 41.9561C362.05 41.615 362.21 41.1928 362.352 40.6947C362.506 40.1858 362.625 39.5632 362.722 38.8161C362.819 38.0636 362.87 37.1379 362.87 36.0281V32.9639C362.87 32.5904 362.785 32.3089 362.614 32.1357C362.437 31.957 362.215 31.8379 361.942 31.7729C361.68 31.7134 361.396 31.6647 361.105 31.6214C360.764 31.5943 360.439 31.5401 360.121 31.4698C359.808 31.3832 359.546 31.2316 359.335 31.0042C359.124 30.7714 359.022 30.4033 359.022 29.8998C359.022 29.5912 359.096 29.353 359.25 29.1798C359.409 29.0011 359.62 28.8279 359.887 28.6601C360.149 28.4868 360.451 28.2811 360.792 28.0321C361.128 27.7776 361.492 27.442 361.879 27.0197C362.272 26.5866 362.665 26.0074 363.041 25.2765C363.479 24.4482 363.843 23.7336 364.122 23.1327C364.401 22.5318 364.703 22.0662 365.027 21.736C365.352 21.4111 365.79 21.2433 366.354 21.2433C366.843 21.2433 367.196 21.3678 367.407 21.6169C367.634 21.8605 367.771 22.2232 367.816 22.6996C367.873 23.176 367.908 23.7661 367.908 24.4753C367.908 25.3144 367.896 25.9803 367.885 26.4729C367.873 26.9656 367.913 27.3337 367.993 27.5719C368.078 27.8047 368.255 27.9563 368.528 28.0321C368.801 28.1025 369.211 28.1349 369.758 28.1349C370.128 28.1349 370.48 28.1674 370.828 28.2378C371.169 28.3082 371.454 28.4543 371.664 28.6763C371.892 28.9037 372 29.2502 372 29.7266C372 30.2842 371.898 30.6902 371.687 30.9338C371.488 31.1828 371.226 31.3398 370.902 31.4048C370.577 31.4698 370.241 31.5131 369.888 31.5401C369.524 31.5672 369.166 31.6159 368.818 31.6917C368.482 31.7675 368.209 31.9353 367.993 32.1952C367.782 32.4551 367.68 32.8773 367.68 33.4674V36.0281C367.68 36.5749 367.697 37.2137 367.731 37.9445C367.771 38.67 367.879 39.4387 368.067 40.2454C368.255 41.0412 368.568 41.837 369.006 42.622C369.16 42.8872 369.308 43.1796 369.444 43.4936C369.592 43.8076 369.661 44.1757 369.661 44.5926C369.661 45.1502 369.513 45.6536 369.211 46.0976C368.909 46.5361 368.505 46.9042 368.004 47.202C367.503 47.5051 366.951 47.7325 366.331 47.8895C365.71 48.0465 365.09 48.1277 364.458 48.1277Z" stroke="white" stroke-width="6.565"/>
<path d="M204.603 48.122C202.446 48.122 200.664 48.0624 199.253 47.9488C197.852 47.8459 196.754 47.6781 195.951 47.4507C195.16 47.2071 194.596 46.8985 194.266 46.5195C193.947 46.146 193.788 45.6967 193.788 45.1769C193.788 44.5273 193.891 43.9372 194.107 43.4013C194.317 42.8545 194.568 42.2969 194.858 41.7338C195.097 41.2304 195.342 40.6836 195.587 40.0881C195.843 39.4817 196.054 38.7617 196.224 37.9226C196.407 37.0727 196.498 36.017 196.498 34.761V31.123C196.498 29.9699 196.395 29.0171 196.202 28.2646C196.019 27.5012 195.792 26.8678 195.519 26.359C195.257 25.8392 195.001 25.3791 194.744 24.9731C194.483 24.5724 194.255 24.1502 194.061 23.7171C193.879 23.284 193.788 22.7751 193.788 22.1796C193.788 21.4758 193.947 20.8695 194.266 20.3606C194.585 19.8409 195.006 19.4186 195.541 19.083C196.088 18.7365 196.691 18.4875 197.363 18.325C198.029 18.1518 198.712 18.0652 199.412 18.0652C200.289 18.0652 201.125 18.2059 201.917 18.4766C202.719 18.7365 203.374 19.1263 203.875 19.646C204.387 20.1657 204.649 20.8153 204.649 21.5949C204.649 22.1579 204.558 22.6722 204.376 23.1324C204.205 23.5817 203.994 24.0365 203.738 24.4966C203.476 24.946 203.22 25.4603 202.964 26.0341C202.702 26.5972 202.486 27.2685 202.304 28.048C202.133 28.8276 202.053 29.7696 202.053 30.8632V35.3673C202.053 37.3488 202.178 38.9566 202.44 40.1964C202.696 41.4415 203.123 42.351 203.715 42.9249C204.307 43.5041 205.104 43.791 206.106 43.791C206.744 43.791 207.279 43.699 207.723 43.5095C208.161 43.3092 208.548 43.0548 208.884 42.7516C209.231 42.4484 209.556 42.1236 209.863 41.7772C210.165 41.4632 210.466 41.16 210.774 40.8677C211.075 40.5807 211.423 40.3479 211.821 40.1747C212.214 39.9906 212.686 39.8932 213.233 39.8932C213.734 39.8932 214.195 40.0394 214.622 40.3263C215.06 40.6024 215.407 40.9759 215.669 41.4523C215.925 41.9179 216.056 42.4268 216.056 42.9898C216.056 44.0184 215.897 44.8684 215.578 45.5451C215.259 46.211 214.679 46.7307 213.848 47.1042C213.028 47.4778 211.872 47.7376 210.387 47.8838C208.895 48.0408 206.971 48.122 204.603 48.122Z" fill="#EC83A8"/>
<path d="M227.267 48.122C225.775 48.122 224.421 47.8892 223.191 47.429C221.962 46.9689 220.897 46.3192 220.003 45.4801C219.104 44.6302 218.415 43.6124 217.931 42.4268C217.459 41.2304 217.226 39.9094 217.226 38.464C217.226 37.0943 217.453 35.7788 217.909 34.5228C218.375 33.256 219.07 32.1137 219.981 31.1013C220.891 30.0782 222.013 29.2769 223.35 28.6977C224.7 28.1076 226.271 27.8098 228.064 27.8098C229.441 27.8098 230.739 28.0426 231.957 28.5028C233.17 28.9521 234.24 29.6072 235.168 30.4734C236.09 31.3395 236.813 32.3952 237.331 33.6349C237.86 34.8801 238.128 36.2931 238.128 37.8793C238.128 39.1786 237.906 40.4454 237.467 41.6689C237.023 42.8978 236.357 43.9968 235.464 44.9604C234.581 45.9294 233.46 46.7036 232.094 47.2774C230.739 47.8405 229.134 48.122 227.267 48.122ZM227.563 43.8343C228.365 43.8343 229.043 43.6394 229.589 43.2497C230.147 42.8599 230.602 42.351 230.955 41.7122C231.32 41.0625 231.576 40.3587 231.729 39.59C231.895 38.8104 231.98 38.0471 231.98 37.2946C231.98 36.3851 231.849 35.5568 231.593 34.8043C231.348 34.0572 230.961 33.4563 230.432 33.007C229.897 32.563 229.208 32.3357 228.36 32.3357C227.386 32.3357 226.538 32.6172 225.809 33.1802C225.092 33.7432 224.54 34.4957 224.147 35.4323C223.749 36.358 223.555 37.3704 223.555 38.464C223.555 39.4926 223.703 40.4075 224.011 41.2141C224.312 42.0262 224.762 42.665 225.354 43.1414C225.957 43.607 226.697 43.8343 227.563 43.8343Z" fill="#EC83A8"/>
<path d="M249.648 48.122C248.902 48.122 248.31 48.0191 247.872 47.8188C247.428 47.6131 247.086 47.3424 246.847 46.9959C246.619 46.6386 246.443 46.2326 246.323 45.7833C246.198 45.3231 246.101 44.8467 246.027 44.3541C245.811 43.071 245.526 41.7771 245.162 40.4779C244.809 39.1677 244.308 37.9172 243.659 36.7316C243.005 35.5352 242.122 34.4903 241.018 33.5916C240.574 33.2343 240.227 32.8987 239.971 32.5955C239.726 32.2815 239.606 31.8322 239.606 31.2529C239.606 30.7332 239.754 30.2676 240.062 29.8454C240.381 29.4285 240.79 29.0658 241.291 28.7626C241.792 28.4595 242.35 28.2321 242.976 28.0697C243.597 27.8964 244.211 27.8098 244.821 27.8098C245.515 27.8098 246.153 27.9127 246.733 28.113C247.325 28.3187 247.803 28.6273 248.168 29.0441C248.532 29.4664 248.714 29.9861 248.714 30.6033C248.714 30.8794 248.68 31.1392 248.623 31.3829C248.56 31.6156 248.486 31.8484 248.395 32.0758C248.259 32.5414 248.151 33.0394 248.077 33.57C247.997 34.1059 247.963 34.6635 247.963 35.2374C247.963 36.1631 248.054 37.0997 248.236 38.0525C248.418 38.9945 248.691 39.8607 249.056 40.6511C249.249 41.1004 249.471 41.3224 249.716 41.3224C249.835 41.3224 249.944 41.2574 250.035 41.1275C250.126 40.9867 250.217 40.8135 250.308 40.6078C250.837 39.2652 251.27 38.0688 251.606 37.0131C251.936 35.9628 252.107 35.0154 252.107 34.1763C252.107 33.8894 252.084 33.6079 252.038 33.3318C251.993 33.0449 251.913 32.7688 251.811 32.5089C251.72 32.2924 251.634 32.0541 251.56 31.7943C251.48 31.5344 251.446 31.2096 251.446 30.8198C251.446 30.2568 251.657 29.7533 252.084 29.304C252.505 28.8438 253.069 28.4811 253.769 28.2213C254.48 27.9506 255.254 27.8098 256.091 27.8098C256.774 27.8098 257.412 27.9127 258.004 28.113C258.596 28.3187 259.063 28.6273 259.415 29.0441C259.78 29.4664 259.962 29.9861 259.962 30.6033C259.962 31.2854 259.808 31.8593 259.507 32.3357C259.216 32.8012 258.829 33.3047 258.345 33.8515C257.992 34.2413 257.622 34.6906 257.23 35.1941C256.831 35.703 256.421 36.3147 256 37.0347C255.59 37.7439 255.186 38.5939 254.793 39.59C254.384 40.6619 254.042 41.5985 253.769 42.4051C253.507 43.2172 253.296 43.9318 253.131 44.5489C252.915 45.2581 252.727 45.8428 252.562 46.303C252.408 46.7686 252.22 47.1367 251.993 47.4074C251.776 47.6672 251.48 47.8459 251.105 47.9487C250.74 48.0624 250.251 48.122 249.648 48.122Z" fill="#EC83A8"/>
<path d="M270.998 48.122C269.643 48.122 268.385 47.9325 267.219 47.559C266.046 47.1854 265.021 46.6386 264.145 45.9132C263.279 45.1769 262.602 44.2783 262.118 43.2064C261.629 42.1399 261.39 40.9218 261.39 39.5467C261.39 38.4098 261.56 37.2729 261.913 36.1469C262.278 35.01 262.79 33.9381 263.462 32.942C264.145 31.935 264.964 31.0472 265.921 30.2785C266.877 29.5151 267.947 28.9142 269.131 28.4811C270.315 28.0372 271.602 27.8098 273.002 27.8098C274.459 27.8098 275.717 28.0697 276.781 28.5894C277.84 29.1091 278.66 29.8021 279.241 30.6682C279.833 31.5344 280.134 32.4656 280.151 33.4617C280.163 34.3712 280.02 35.1508 279.719 35.8004C279.428 36.4392 279.024 36.9698 278.512 37.4029C278.011 37.8251 277.43 38.1608 276.781 38.4206C276.144 38.6805 275.472 38.8971 274.778 39.0703C274.095 39.2327 273.423 39.3843 272.774 39.525C272.057 39.655 271.408 39.8011 270.816 39.9581C270.235 40.1043 269.757 40.2992 269.382 40.5428C269.017 40.7918 268.818 41.1383 268.79 41.5822C268.744 42.3347 269.006 42.8978 269.586 43.2713C270.161 43.6503 270.867 43.8343 271.704 43.8343C272.66 43.8343 273.457 43.7207 274.095 43.4879C274.744 43.2605 275.284 42.979 275.711 42.6433C276.133 42.3131 276.508 41.9829 276.827 41.6472C277.157 41.3007 277.47 41.0138 277.761 40.781C278.062 40.5536 278.421 40.4345 278.831 40.4345C279.132 40.4345 279.423 40.5428 279.696 40.7594C279.969 40.9759 280.106 41.2899 280.106 41.6905C280.106 42.3564 279.884 43.0656 279.445 43.8127C279.001 44.5489 278.375 45.2527 277.556 45.9132C276.747 46.5628 275.791 47.0934 274.687 47.494C273.577 47.9108 272.347 48.122 270.998 48.122ZM270.042 37.3812C270.554 37.3812 271.112 37.2621 271.704 37.0131C272.296 36.7532 272.854 36.4176 273.389 35.9953C273.918 35.5785 274.351 35.1075 274.687 34.5878C275.034 34.0572 275.21 33.5158 275.21 32.9636C275.21 32.3465 274.994 31.9134 274.573 31.6644C274.146 31.4045 273.605 31.2746 272.956 31.2746C272.364 31.2746 271.795 31.4045 271.249 31.6644C270.714 31.9242 270.235 32.2815 269.814 32.7254C269.404 33.1585 269.074 33.6512 268.835 34.198C268.607 34.7339 268.494 35.2915 268.494 35.8654C268.494 36.8777 269.006 37.3812 270.042 37.3812Z" fill="#EC83A8"/>
<path d="M304.692 48.122C303.901 48.122 303.173 48.0191 302.507 47.8188C301.852 47.6131 301.323 47.2991 300.913 46.866C300.514 46.4329 300.321 45.8699 300.321 45.1769C300.321 44.5869 300.4 44.0401 300.571 43.5312C300.736 43.0277 300.947 42.5242 301.209 42.0154C301.465 41.4956 301.721 40.9434 301.983 40.3479C302.239 39.7578 302.45 39.0811 302.62 38.3124C302.786 37.5328 302.871 36.6341 302.871 35.6055V26.922C302.871 25.2492 302.786 24.0636 302.62 23.3706C302.45 22.6776 302.063 22.3312 301.459 22.3312C301.095 22.3312 300.742 22.4503 300.412 22.6776C300.093 22.9104 299.763 23.1974 299.433 23.5438C299.097 23.8903 298.733 24.2368 298.34 24.5833C297.959 24.9189 297.532 25.2004 297.065 25.4278C296.592 25.6606 296.052 25.7743 295.448 25.7743C294.503 25.7743 293.843 25.4495 293.467 24.7998C293.086 24.1502 292.972 23.2786 293.126 22.1796C293.291 20.7937 293.809 19.7651 294.674 19.083C295.551 18.4062 296.638 18.0652 297.93 18.0652C298.733 18.0652 299.438 18.1031 300.048 18.1735C300.651 18.233 301.22 18.3034 301.755 18.39C302.302 18.4766 302.877 18.5578 303.486 18.6282C304.089 18.704 304.795 18.7365 305.603 18.7365C306.269 18.7365 306.867 18.704 307.402 18.6282C307.931 18.5578 308.461 18.4766 308.996 18.39C309.525 18.3034 310.094 18.233 310.703 18.1735C311.324 18.1031 312.053 18.0652 312.889 18.0652C314.164 18.0652 315.178 18.3792 315.94 18.9963C316.714 19.6189 317.181 20.5934 317.352 21.9197C317.517 23.1486 317.42 24.1015 317.056 24.7782C316.703 25.444 316.157 25.7743 315.417 25.7743C314.779 25.7743 314.216 25.6606 313.732 25.4278C313.242 25.2004 312.804 24.9189 312.411 24.5833C312.03 24.2368 311.671 23.8903 311.341 23.5438C311.022 23.1974 310.703 22.9104 310.385 22.6776C310.066 22.4503 309.736 22.3312 309.406 22.3312C309.024 22.3312 308.734 22.4828 308.54 22.7859C308.358 23.0783 308.233 23.5601 308.176 24.2368C308.113 24.9027 308.085 25.7959 308.085 26.922V35.3673C308.085 36.4934 308.165 37.4462 308.335 38.2258C308.501 38.9945 308.705 39.6496 308.95 40.1964C309.189 40.7323 309.434 41.225 309.679 41.6689C309.918 42.102 310.123 42.5513 310.294 43.0115C310.476 43.4608 310.567 43.9859 310.567 44.5923C310.567 45.1553 310.39 45.6642 310.043 46.1081C309.707 46.5412 309.252 46.9093 308.677 47.2125C308.096 47.5157 307.459 47.7376 306.764 47.8838C306.081 48.0408 305.387 48.122 304.692 48.122Z" fill="#EC83A8"/>
<path d="M328.207 48.122C326.852 48.122 325.594 47.9325 324.427 47.559C323.255 47.1854 322.23 46.6386 321.354 45.9132C320.488 45.1769 319.811 44.2783 319.327 43.2064C318.838 42.1399 318.599 40.9218 318.599 39.5467C318.599 38.4098 318.769 37.2729 319.122 36.1469C319.487 35.01 319.999 33.9381 320.671 32.942C321.354 31.935 322.173 31.0472 323.13 30.2785C324.086 29.5151 325.156 28.9142 326.34 28.4811C327.524 28.0372 328.811 27.8098 330.211 27.8098C331.668 27.8098 332.926 28.0697 333.99 28.5894C335.049 29.1091 335.869 29.8021 336.45 30.6682C337.042 31.5344 337.343 32.4656 337.36 33.4617C337.372 34.3712 337.229 35.1508 336.928 35.8004C336.637 36.4392 336.233 36.9698 335.721 37.4029C335.22 37.8251 334.639 38.1608 333.99 38.4206C333.353 38.6805 332.681 38.8971 331.987 39.0703C331.304 39.2327 330.632 39.3843 329.983 39.525C329.266 39.655 328.617 39.8011 328.025 39.9581C327.444 40.1043 326.966 40.2992 326.591 40.5428C326.226 40.7918 326.027 41.1383 325.999 41.5822C325.953 42.3347 326.215 42.8978 326.795 43.2713C327.37 43.6503 328.076 43.8343 328.913 43.8343C329.869 43.8343 330.666 43.7207 331.304 43.4879C331.953 43.2605 332.493 42.979 332.92 42.6433C333.342 42.3131 333.717 41.9829 334.036 41.6472C334.366 41.3007 334.679 41.0138 334.97 40.781C335.271 40.5536 335.63 40.4345 336.04 40.4345C336.341 40.4345 336.632 40.5428 336.905 40.7594C337.178 40.9759 337.315 41.2899 337.315 41.6905C337.315 42.3564 337.093 43.0656 336.654 43.8127C336.21 44.5489 335.584 45.2527 334.765 45.9132C333.956 46.5628 333 47.0934 331.896 47.494C330.786 47.9108 329.556 48.122 328.207 48.122ZM327.251 37.3812C327.763 37.3812 328.321 37.2621 328.913 37.0131C329.505 36.7532 330.063 36.4176 330.598 35.9953C331.127 35.5785 331.56 35.1075 331.896 34.5878C332.243 34.0572 332.419 33.5158 332.419 32.9636C332.419 32.3465 332.203 31.9134 331.782 31.6644C331.355 31.4045 330.814 31.2746 330.165 31.2746C329.573 31.2746 329.004 31.4045 328.458 31.6644C327.923 31.9242 327.444 32.2815 327.023 32.7254C326.613 33.1585 326.283 33.6512 326.044 34.198C325.816 34.7339 325.703 35.2915 325.703 35.8654C325.703 36.8777 326.215 37.3812 327.251 37.3812Z" fill="#EC83A8"/>
<path d="M348.421 48.122C346.69 48.122 345.153 47.9325 343.821 47.559C342.501 47.1854 341.459 46.644 340.702 45.9349C339.939 45.2311 339.563 44.3757 339.563 43.3796C339.563 42.2427 339.916 41.3657 340.634 40.7594C341.345 40.153 342.239 39.8499 343.32 39.8499C344.277 39.8499 345.017 40.0664 345.552 40.4995C346.081 40.9326 346.485 41.5335 346.758 42.2969C347.06 43.1955 347.402 43.8668 347.783 44.3107C348.159 44.7601 348.7 44.982 349.4 44.982C349.958 44.982 350.458 44.798 350.902 44.419C351.341 44.0292 351.563 43.3904 351.563 42.4917C351.563 41.9179 351.426 41.4523 351.153 41.1058C350.891 40.7485 350.527 40.4562 350.06 40.2396C349.605 40.0123 349.087 39.8066 348.512 39.6333C347.931 39.4601 347.316 39.2814 346.667 39.0919C345.939 38.8754 345.216 38.6155 344.504 38.3124C343.804 38.0092 343.167 37.6411 342.592 37.208C342.011 36.7641 341.544 36.2119 341.18 35.5622C340.827 34.9126 340.656 34.133 340.656 33.2235C340.656 32.2436 340.873 31.4153 341.317 30.7332C341.772 30.0403 342.375 29.4881 343.138 29.0658C343.912 28.6327 344.778 28.3187 345.734 28.113C346.69 27.9127 347.675 27.8098 348.694 27.8098C350.043 27.8098 351.198 27.9343 352.155 28.1779C353.111 28.4107 353.885 28.7356 354.477 29.1524C355.081 29.5747 355.525 30.0294 355.798 30.5167C356.071 30.9931 356.208 31.4803 356.208 31.9675C356.208 32.6172 356.014 33.1694 355.638 33.6133C355.257 34.0464 354.779 34.382 354.204 34.6094C353.64 34.826 353.054 34.9342 352.451 34.9342C351.46 34.9342 350.766 34.7285 350.356 34.3062C349.958 33.8731 349.701 33.2776 349.582 32.5089C349.474 31.9188 349.263 31.4641 348.944 31.1446C348.637 30.8144 348.227 30.6466 347.715 30.6466C347.225 30.6466 346.77 30.8144 346.349 31.1446C345.939 31.4641 345.734 31.9188 345.734 32.5089C345.734 33.0611 345.882 33.5213 346.189 33.8948C346.491 34.2738 346.901 34.5878 347.419 34.8476C347.931 35.1075 348.512 35.3403 349.149 35.5406C349.798 35.7463 350.476 35.9466 351.176 36.1469C351.95 36.3959 352.707 36.6774 353.453 36.9914C354.21 37.3108 354.898 37.7006 355.525 38.1608C356.145 38.6264 356.64 39.1786 357.005 39.8282C357.38 40.467 357.574 41.2304 357.574 42.1236C357.574 44.1321 356.783 45.6317 355.206 46.6278C353.623 47.6239 351.364 48.122 348.421 48.122Z" fill="#EC83A8"/>
<path d="M364.461 48.1219C363.761 48.1219 363.118 48.019 362.526 47.8187C361.945 47.613 361.479 47.299 361.114 46.8659C360.75 46.4328 360.568 45.8698 360.568 45.1768C360.568 44.7329 360.642 44.3269 360.796 43.9641C360.944 43.5906 361.137 43.2279 361.365 42.8814C361.53 42.5945 361.695 42.2859 361.866 41.9502C362.048 41.62 362.207 41.2032 362.344 40.6943C362.492 40.1908 362.617 39.5628 362.708 38.8103C362.811 38.0632 362.867 37.1375 362.867 36.0385V32.9635C362.867 32.59 362.782 32.3139 362.617 32.1406C362.446 31.9674 362.23 31.8537 361.957 31.7942C361.684 31.7238 361.393 31.6642 361.092 31.6209C360.756 31.5939 360.431 31.5451 360.112 31.4693C359.794 31.3827 359.526 31.2257 359.316 30.9929C359.116 30.7656 359.02 30.3974 359.02 29.8885C359.02 29.5854 359.094 29.3472 359.247 29.1739C359.412 29.0007 359.623 28.8383 359.885 28.6759C360.141 28.5026 360.437 28.2969 360.773 28.0479C361.12 27.788 361.484 27.4524 361.866 27.0301C362.258 26.597 362.651 26.0123 363.05 25.2761C363.488 24.4532 363.847 23.7494 364.12 23.1539C364.404 22.5476 364.712 22.082 365.031 21.7464C365.349 21.4161 365.788 21.2483 366.351 21.2483C366.835 21.2483 367.182 21.3728 367.399 21.6164C367.626 21.8655 367.763 22.2228 367.808 22.6992C367.865 23.1756 367.899 23.7711 367.899 24.4749C367.899 25.3302 367.888 26.0015 367.877 26.4887C367.877 26.9651 367.911 27.3279 367.991 27.5715C368.082 27.8043 368.264 27.9559 368.537 28.0262C368.81 28.102 369.209 28.1345 369.744 28.1345C370.119 28.1345 370.478 28.1724 370.814 28.2428C371.161 28.3186 371.44 28.4702 371.656 28.6975C371.884 28.9141 371.998 29.2606 371.998 29.737C371.998 30.3 371.89 30.706 371.679 30.9496C371.48 31.1824 371.212 31.334 370.882 31.4044C370.563 31.4639 370.228 31.5072 369.88 31.5343C369.516 31.5668 369.157 31.6209 368.81 31.7075C368.474 31.7833 368.201 31.9457 367.991 32.2056C367.774 32.4655 367.672 32.8877 367.672 33.4616V36.0385C367.672 36.5744 367.683 37.2079 367.717 37.9441C367.763 38.6695 367.877 39.4329 368.059 40.2395C368.241 41.0516 368.548 41.842 368.992 42.6215C369.157 42.8814 369.311 43.1737 369.448 43.4877C369.596 43.8071 369.675 44.1753 369.675 44.5921C369.675 45.1551 369.522 45.664 369.22 46.108C368.913 46.5411 368.514 46.9092 368.013 47.2124C367.512 47.5155 366.949 47.7375 366.328 47.8836C365.702 48.0406 365.082 48.1219 364.461 48.1219Z" fill="#EC83A8"/>
<path d="M41.9238 48.1279C39.7608 48.1279 37.9734 48.0683 36.5674 47.9492C35.1671 47.8409 34.0685 47.6677 33.2716 47.4295C32.4804 47.1913 31.9226 46.8827 31.5981 46.5146C31.2736 46.1464 31.1143 45.7025 31.1143 45.1828C31.1143 44.5278 31.2167 43.9322 31.4273 43.3909C31.6436 42.8495 31.8884 42.3027 32.173 41.7397C32.4235 41.2362 32.6682 40.6949 32.913 40.1102C33.1635 39.5309 33.3741 38.8813 33.5392 38.1558C33.7099 37.425 33.7953 36.575 33.7953 35.6114V32.3848C33.7953 30.9719 33.7042 29.8025 33.5164 28.8822C33.3399 27.951 33.1122 27.1877 32.839 26.5868C32.5658 25.9859 32.2982 25.4553 32.0421 24.9952C31.803 24.5458 31.5867 24.1127 31.3932 23.6959C31.211 23.2736 31.1143 22.7647 31.1143 22.18C31.1143 21.4817 31.3078 20.8808 31.6949 20.3665C32.0819 19.8522 32.7195 19.4245 33.5904 19.0834C34.467 18.7423 35.6282 18.4933 37.074 18.3255C38.5256 18.1577 40.3186 18.071 42.4475 18.071C46.1418 18.071 48.8114 18.4392 50.4679 19.1754C52.1243 19.9063 52.9554 21.0648 52.9554 22.6402C52.9554 23.3007 52.8017 23.8366 52.5 24.2372C52.1983 24.6433 51.817 24.941 51.3502 25.1305C50.8891 25.32 50.428 25.4174 49.9613 25.4174C49.2042 25.4174 48.5553 25.3254 48.0088 25.1413C47.4681 24.9573 46.9899 24.7299 46.5744 24.4538C46.1646 24.1831 45.7775 23.8962 45.4132 23.6038C44.9123 23.2303 44.3943 22.8838 43.8592 22.5698C43.3355 22.2558 42.6752 22.0988 41.8783 22.0988C41.3489 22.0988 40.8935 22.1909 40.5122 22.3749C40.1308 22.5536 39.8348 22.873 39.6242 23.3386C39.4192 23.7933 39.3168 24.443 39.3168 25.2821C39.3168 26.5002 39.3339 27.4638 39.368 28.173C39.4135 28.8768 39.4989 29.4019 39.6355 29.743C39.7835 30.0786 39.9999 30.2897 40.2959 30.3872C40.5918 30.4846 40.9846 30.5334 41.4798 30.5334C41.9124 30.5334 42.2938 30.4413 42.624 30.2519C42.9541 30.0624 43.2615 29.8296 43.5461 29.5481C43.8364 29.2666 44.121 28.985 44.4 28.7089C44.6846 28.4274 44.9976 28.1946 45.3278 28.0106C45.6636 27.8211 46.045 27.7237 46.4662 27.7237C47.0981 27.7237 47.599 27.9077 47.9633 28.2759C48.3333 28.644 48.5895 29.1529 48.7431 29.7917C48.9025 30.4305 48.9765 31.1343 48.9765 31.9139C48.9765 32.5906 48.931 33.224 48.8285 33.8086C48.7261 34.3987 48.5325 34.8697 48.2365 35.2324C47.9405 35.5952 47.5136 35.7792 46.9558 35.7792C46.5858 35.7792 46.2727 35.7143 46.0052 35.5843C45.7376 35.4436 45.4758 35.2812 45.2083 35.0809C44.9407 34.8751 44.6447 34.6748 44.3146 34.4745C43.9844 34.2688 43.5746 34.1064 43.0964 33.9765C42.624 33.8357 42.0263 33.7707 41.3091 33.7707C40.8935 33.7707 40.5577 33.7978 40.3072 33.852C40.0625 33.9061 39.8689 34.0306 39.7209 34.2201C39.5843 34.4041 39.4932 34.7073 39.442 35.1296C39.3908 35.5464 39.368 36.1311 39.368 36.8728C39.368 39.0924 39.664 40.8031 40.2617 42.0104C40.8651 43.2014 41.9181 43.8023 43.4209 43.8023C44.0527 43.8023 44.5878 43.6995 45.0261 43.5046C45.4701 43.3043 45.8629 43.0552 46.1987 42.7466C46.5459 42.4381 46.8704 42.1187 47.1778 41.783C47.4681 41.4636 47.7641 41.155 48.0715 40.8681C48.3902 40.5812 48.7431 40.3538 49.1302 40.1751C49.5173 39.9911 49.984 39.899 50.5305 39.899C51.0485 39.899 51.5153 40.0344 51.9422 40.3159C52.3634 40.5974 52.7049 40.971 52.9668 41.4419C53.2229 41.9075 53.3539 42.4272 53.3539 43.0011C53.3539 44.0189 53.1945 44.8688 52.8814 45.5455C52.5626 46.2114 51.9934 46.7311 51.168 47.0993C50.3484 47.4674 49.1928 47.7327 47.6958 47.8897C46.2044 48.0467 44.2747 48.1279 41.9238 48.1279ZM63.9414 39.2223H58.4257C56.2171 39.2223 55.1185 38.367 55.1185 36.6562C55.1185 36.1149 55.3234 35.6493 55.7275 35.2758C56.1488 34.9022 56.7009 34.6207 57.401 34.4366C58.0955 34.2417 58.881 34.1497 59.7463 34.1497H65.2677C66.3549 34.1497 67.1803 34.3608 67.7325 34.7831C68.2903 35.2054 68.5749 35.8334 68.5749 36.6562C68.5749 37.2193 68.37 37.6903 67.9602 38.0746C67.5503 38.4482 66.9925 38.7351 66.2866 38.9354C65.5922 39.1249 64.8067 39.2223 63.9414 39.2223ZM79.2479 48.0304C76.4701 48.0304 74.3412 47.8301 72.8612 47.4295C71.3869 47.0235 70.6526 46.2764 70.6526 45.1828C70.6526 44.6793 70.7266 44.1813 70.8803 43.6886C71.034 43.1906 71.3129 42.5409 71.7057 41.7397C72.1041 40.9276 72.4229 40.1914 72.6676 39.5255C72.9124 38.865 73.0832 38.2208 73.1856 37.6036C73.2824 36.9757 73.3336 36.3098 73.3336 35.6114V32.3848C73.3336 31.3454 73.2767 30.4088 73.1629 29.5697C73.049 28.7252 72.8612 27.9402 72.605 27.2094C72.3432 26.4731 72.0017 25.7368 71.5804 24.9952C71.2218 24.3347 70.9771 23.8096 70.8461 23.4198C70.7152 23.03 70.6526 22.6185 70.6526 22.18C70.6526 21.2326 71.0454 20.4531 71.8252 19.8413C72.6164 19.235 73.6979 18.7857 75.0698 18.4987C76.4473 18.2118 78.0184 18.071 79.7773 18.071C82.3729 18.071 84.6441 18.4446 86.5966 19.1863C88.5604 19.9225 90.1941 20.962 91.509 22.2937C92.8239 23.6201 93.8143 25.1684 94.486 26.9441C95.1577 28.7198 95.4992 30.6416 95.4992 32.7151C95.4992 35.3299 95.2089 37.6036 94.634 39.5255C94.0591 41.4474 93.137 43.039 91.8676 44.3004C90.5982 45.5618 88.9247 46.4983 86.847 47.1101C84.7694 47.7272 82.2363 48.0304 79.2479 48.0304ZM82.9592 43.38C84.6384 43.38 85.9363 42.503 86.847 40.749C87.7578 38.9895 88.2132 36.3856 88.2132 32.9262C88.2132 30.8474 87.9172 29.0608 87.3309 27.5721C86.7446 26.0725 85.9363 24.9248 84.906 24.129C83.8871 23.3223 82.7258 22.9163 81.4166 22.9163C80.8816 22.9163 80.4262 23.0137 80.0448 23.2141C79.6691 23.4035 79.3731 23.7771 79.1625 24.3293C78.9576 24.8869 78.8494 25.6989 78.8494 26.7817C78.8494 27.3285 78.8494 27.9781 78.8494 28.736C78.8494 29.4885 78.8551 30.2843 78.8608 31.1235C78.8722 31.968 78.8779 32.7963 78.8836 33.6246C78.9007 34.4475 78.9064 35.2054 78.9064 35.9092C78.9064 36.6075 78.9064 37.1868 78.9064 37.6524C78.9064 39.7204 79.2422 41.1929 79.9082 42.0699C80.5742 42.9415 81.5931 43.38 82.9592 43.38ZM105.643 48.1279C104.493 48.1279 103.434 47.9113 102.467 47.4782C101.499 47.0559 100.651 46.455 99.9221 45.6755C99.2049 44.8959 98.6471 43.981 98.2429 42.9307C97.8501 41.8696 97.6509 40.7057 97.6509 39.4335C97.6509 38.2749 97.8274 37.1327 98.186 36.0012C98.556 34.8751 99.0626 33.8195 99.7172 32.8342C100.372 31.8435 101.152 30.9773 102.057 30.2248C102.962 29.4669 103.958 28.8768 105.051 28.4491C106.149 28.0214 107.316 27.8049 108.552 27.8049C109.451 27.8049 110.157 27.9402 110.675 28.2055C111.198 28.4707 111.648 28.736 112.024 29.0067C112.269 29.1799 112.513 29.3424 112.758 29.4831C112.997 29.6239 113.265 29.6888 113.544 29.6888C113.897 29.6888 114.17 29.613 114.363 29.456C114.563 29.2936 114.75 29.1041 114.933 28.9038C115.155 28.6494 115.422 28.4004 115.729 28.1622C116.037 27.924 116.532 27.8049 117.204 27.8049C117.426 27.8049 117.665 27.859 117.915 27.9564C118.177 28.0539 118.399 28.2163 118.587 28.4491C118.781 28.6765 118.877 28.9796 118.877 29.364C118.877 29.7105 118.849 29.9974 118.792 30.2248C118.729 30.4413 118.661 30.6687 118.576 30.9123C118.502 31.1235 118.422 31.3779 118.325 31.6811C118.24 31.9788 118.16 32.3686 118.086 32.845C118.018 33.316 117.955 33.9223 117.893 34.6586C117.847 35.3894 117.819 36.3098 117.819 37.4196C117.819 38.3778 117.864 39.1844 117.961 39.8233C118.058 40.4621 118.183 40.9764 118.325 41.3716C118.479 41.7668 118.638 42.0916 118.809 42.3352C118.991 42.5842 119.162 42.7954 119.316 42.9794C119.526 43.2068 119.697 43.4342 119.822 43.667C119.959 43.8944 120.027 44.23 120.027 44.6848C120.027 45.1936 119.873 45.6646 119.566 46.0977C119.259 46.52 118.855 46.8827 118.359 47.1805C117.87 47.4836 117.335 47.7164 116.754 47.8788C116.173 48.0412 115.599 48.1279 115.041 48.1279C114.352 48.1279 113.862 48.0088 113.572 47.776C113.288 47.5432 113.117 47.2454 113.06 46.8827C112.997 46.5146 112.969 46.1302 112.969 45.7296C112.969 45.2857 112.895 44.9825 112.747 44.8255C112.599 44.6685 112.439 44.5873 112.257 44.5873C112.024 44.5873 111.79 44.6902 111.568 44.8851C111.352 45.0854 111.113 45.3236 110.851 45.6051C110.538 45.9516 110.168 46.3251 109.73 46.7203C109.297 47.1101 108.756 47.4403 108.102 47.7164C107.447 47.9871 106.628 48.1279 105.643 48.1279ZM107.584 43.3422C108.301 43.3422 108.984 43.1418 109.633 42.7466C110.276 42.3406 110.851 41.7884 111.352 41.0846C111.859 40.3755 112.252 39.558 112.542 38.6377C112.826 37.7119 112.969 36.732 112.969 35.698C112.969 34.2688 112.644 33.1915 111.99 32.466C111.346 31.7352 110.493 31.3725 109.44 31.3725C108.626 31.3725 107.903 31.5674 107.271 31.968C106.639 32.3524 106.098 32.8883 105.654 33.565C105.216 34.2309 104.886 34.9834 104.652 35.8171C104.43 36.6454 104.317 37.5008 104.317 38.3778C104.317 39.2332 104.425 40.0398 104.641 40.7977C104.863 41.5502 105.216 42.162 105.688 42.633C106.167 43.104 106.798 43.3422 107.584 43.3422ZM126.909 48.1279C126.22 48.1279 125.583 48.025 124.991 47.8193C124.404 47.6136 123.926 47.2941 123.568 46.8665C123.209 46.428 123.033 45.8649 123.033 45.1828C123.033 44.7335 123.107 44.322 123.255 43.9539C123.414 43.5858 123.602 43.2285 123.818 42.8766C123.983 42.6005 124.148 42.2919 124.325 41.9563C124.501 41.6152 124.666 41.1929 124.809 40.6949C124.957 40.1914 125.082 39.5634 125.173 38.8217C125.275 38.0692 125.327 37.1381 125.327 36.0337V32.9695C125.327 32.596 125.241 32.3199 125.065 32.1412C124.894 31.9626 124.672 31.8435 124.399 31.7785C124.131 31.719 123.852 31.6702 123.556 31.6269C123.22 31.5999 122.896 31.5511 122.577 31.4753C122.264 31.3941 122.002 31.2371 121.792 31.0152C121.581 30.7824 121.479 30.4088 121.479 29.9054C121.479 29.5968 121.553 29.3586 121.706 29.1908C121.866 29.0121 122.076 28.8389 122.338 28.6656C122.606 28.4978 122.907 28.2867 123.243 28.0431C123.585 27.7886 123.943 27.4476 124.336 27.0253C124.729 26.5976 125.116 26.0129 125.497 25.2821C125.936 24.4592 126.294 23.7446 126.573 23.1437C126.858 22.5428 127.16 22.0772 127.478 21.7469C127.803 21.4221 128.247 21.2597 128.805 21.2597C129.294 21.2597 129.647 21.3788 129.863 21.6278C130.085 21.8715 130.222 22.2342 130.273 22.7106C130.33 23.1816 130.359 23.7771 130.359 24.4863C130.359 25.3254 130.347 25.9913 130.336 26.4839C130.33 26.9766 130.364 27.3393 130.444 27.5775C130.529 27.8103 130.711 27.9673 130.979 28.0431C131.252 28.108 131.662 28.1459 132.209 28.1459C132.579 28.1459 132.931 28.1784 133.279 28.2434C133.62 28.3137 133.899 28.4599 134.115 28.6873C134.337 28.9093 134.451 29.2611 134.451 29.7321C134.451 30.2897 134.349 30.6958 134.138 30.9394C133.939 31.1884 133.677 31.3454 133.353 31.4104C133.028 31.4753 132.692 31.5187 132.339 31.5457C131.975 31.5728 131.617 31.6215 131.275 31.6973C130.933 31.7731 130.66 31.9409 130.444 32.2008C130.233 32.4606 130.131 32.8829 130.131 33.473V36.0337C130.131 36.5805 130.148 37.2193 130.182 37.9501C130.222 38.6756 130.33 39.4389 130.518 40.2455C130.706 41.0467 131.019 41.8372 131.457 42.6221C131.617 42.8874 131.759 43.1797 131.895 43.4937C132.043 43.8077 132.112 44.1759 132.112 44.5873C132.112 45.1503 131.964 45.6538 131.662 46.0977C131.36 46.5308 130.956 46.9044 130.455 47.2021C129.96 47.5053 129.402 47.7327 128.782 47.8897C128.167 48.0467 127.541 48.1279 126.909 48.1279ZM145.489 48.1279C144.134 48.1279 142.876 47.933 141.703 47.554C140.536 47.175 139.512 46.6283 138.635 45.9028C137.758 45.172 137.075 44.2733 136.586 43.2176C136.108 42.1511 135.863 40.9331 135.863 39.558C135.863 38.4103 136.045 37.268 136.404 36.1365C136.768 34.9997 137.292 33.9386 137.963 32.937C138.641 31.9355 139.455 31.0477 140.411 30.2843C141.367 29.5156 142.438 28.9093 143.621 28.4707C144.805 28.0268 146.092 27.8049 147.469 27.8049C148.927 27.8049 150.185 28.0701 151.249 28.5953C152.319 29.1204 153.145 29.8133 153.731 30.6741C154.312 31.5349 154.608 32.466 154.625 33.473C154.636 34.3825 154.499 35.1567 154.203 35.7955C153.907 36.4343 153.503 36.9648 152.997 37.3871C152.496 37.8094 151.921 38.1504 151.272 38.4103C150.623 38.6701 149.951 38.8867 149.257 39.0545C148.568 39.2223 147.902 39.3739 147.253 39.5201C146.547 39.6554 145.904 39.7962 145.312 39.9478C144.726 40.0939 144.242 40.2888 143.872 40.5433C143.502 40.7977 143.308 41.1388 143.28 41.5773C143.234 42.3298 143.502 42.8982 144.077 43.2772C144.652 43.6561 145.358 43.8402 146.194 43.8402C147.151 43.8402 147.948 43.7265 148.591 43.4937C149.228 43.2609 149.758 42.9794 150.185 42.6438C150.617 42.3081 150.993 41.9725 151.317 41.6368C151.636 41.3066 151.949 41.0197 152.251 40.7869C152.553 40.5541 152.9 40.4404 153.298 40.4404C153.606 40.4404 153.896 40.5487 154.169 40.7652C154.442 40.9818 154.579 41.2904 154.579 41.7018C154.579 42.3569 154.357 43.0552 153.913 43.8023C153.475 44.5386 152.849 45.2369 152.035 45.9028C151.232 46.5579 150.276 47.0884 149.16 47.4999C148.056 47.9167 146.832 48.1279 145.489 48.1279ZM144.515 37.3763C145.033 37.3763 145.591 37.2518 146.189 36.9973C146.781 36.7429 147.344 36.4072 147.868 35.9904C148.397 35.5681 148.836 35.0971 149.171 34.5774C149.507 34.0523 149.678 33.5163 149.678 32.9695C149.678 32.3524 149.467 31.9193 149.052 31.6702C148.636 31.4158 148.096 31.2913 147.424 31.2913C146.838 31.2913 146.274 31.4212 145.733 31.6811C145.204 31.9409 144.726 32.2874 144.299 32.7367C143.883 33.1698 143.559 33.6571 143.32 34.1984C143.092 34.7398 142.978 35.2974 142.978 35.8713C142.978 36.8728 143.491 37.3763 144.515 37.3763ZM170.728 27.8049C171.667 27.8049 172.475 27.9727 173.159 28.3083C173.853 28.644 174.417 29.0987 174.855 29.6726C175.299 30.2464 175.623 30.8961 175.834 31.6269C176.05 32.3524 176.158 33.1049 176.158 33.8899C176.158 34.7452 175.999 35.4815 175.68 36.0932C175.367 36.7104 174.94 37.1814 174.411 37.5116C173.887 37.8364 173.307 37.9988 172.663 37.9988C171.935 37.9988 171.291 37.8256 170.745 37.4683C170.21 37.111 169.931 36.5805 169.908 35.8713C169.931 35.5031 169.977 35.2108 170.045 34.9997C170.119 34.7777 170.153 34.5395 170.153 34.2688C170.153 33.8086 169.948 33.4568 169.538 33.2131C169.14 32.9695 168.696 32.845 168.218 32.845C167.54 32.845 166.886 33.0561 166.254 33.473C165.628 33.8898 165.115 34.4908 164.711 35.2758C164.313 36.0607 164.108 37.0027 164.108 38.0909C164.108 38.7784 164.216 39.5038 164.421 40.278C164.637 41.0413 164.973 41.8209 165.434 42.6221C165.702 43.0119 165.884 43.3584 165.986 43.6561C166.083 43.9593 166.134 44.2679 166.134 44.5873C166.134 45.2532 165.901 45.8487 165.434 46.3846C164.973 46.9098 164.353 47.332 163.561 47.646C162.776 47.9654 161.899 48.1279 160.932 48.1279C159.742 48.1279 158.791 47.868 158.085 47.3591C157.391 46.8448 157.044 46.1464 157.044 45.264C157.044 44.4682 157.323 43.6724 157.881 42.8766C158.399 42.1349 158.769 41.3337 158.991 40.4783C159.224 39.6284 159.338 38.6322 159.338 37.5008C159.338 36.4559 159.235 35.6114 159.036 34.978C158.843 34.3338 158.49 33.7329 157.977 33.1752C157.647 32.7963 157.408 32.466 157.26 32.1791C157.112 31.8922 157.044 31.5836 157.044 31.248C157.044 30.647 157.277 30.084 157.755 29.5589C158.228 29.0338 158.843 28.6061 159.605 28.2867C160.374 27.9673 161.199 27.8049 162.076 27.8049C162.679 27.8049 163.123 27.8915 163.408 28.0701C163.698 28.2434 163.886 28.4978 163.971 28.8389C164.062 29.1745 164.108 29.5697 164.108 30.0299C164.108 30.9773 164.461 31.4537 165.167 31.4537C165.446 31.4537 165.702 31.3346 165.929 31.0964C166.163 30.8474 166.402 30.5442 166.652 30.1815C166.914 29.8133 167.216 29.4506 167.557 29.0879C167.905 28.7252 168.332 28.422 168.85 28.173C169.368 27.9294 169.994 27.8049 170.728 27.8049Z" stroke="white" stroke-width="6.61283"/>
<path d="M41.9178 48.1203C39.7604 48.1203 37.9788 48.0607 36.5671 47.947C35.1668 47.8442 34.0682 47.6764 33.2656 47.449C32.4744 47.2054 31.9108 46.8968 31.5807 46.5178C31.2619 46.1443 31.1025 45.695 31.1025 45.1752C31.1025 44.5256 31.205 43.9355 31.4213 43.3995C31.6319 42.8528 31.8824 42.2952 32.1727 41.7321C32.4118 41.2449 32.6565 40.7089 32.9013 40.1297C33.1574 39.5396 33.3681 38.8845 33.5388 38.1591C33.721 37.4228 33.812 36.5729 33.812 35.6038V32.3773C33.812 30.9643 33.7096 29.7949 33.5161 28.8692C33.3339 27.9489 33.1062 27.191 32.833 26.5955C32.5598 25.9891 32.2922 25.4586 32.0361 24.993C31.8084 24.5491 31.5921 24.116 31.3985 23.6937C31.1993 23.2769 31.1025 22.7734 31.1025 22.1779C31.1025 21.4849 31.2961 20.8894 31.6945 20.3805C32.0873 19.8608 32.7191 19.4386 33.5844 19.1029C34.461 18.7564 35.6222 18.4966 37.068 18.3233C38.5252 18.1501 40.3126 18.0635 42.4415 18.0635C46.1415 18.0635 48.8225 18.4316 50.4789 19.1679C52.1297 19.9041 52.9608 21.0681 52.9608 22.6543C52.9608 23.3039 52.8071 23.8345 52.5054 24.2351C52.198 24.6411 51.8109 24.9443 51.3442 25.1446C50.8888 25.3341 50.422 25.4261 49.9553 25.4261C49.1925 25.4261 48.5436 25.3341 47.9971 25.1446C47.4621 24.9605 46.9839 24.7331 46.5627 24.4733C46.1528 24.2026 45.7658 23.9103 45.4015 23.6071C44.9005 23.2336 44.3825 22.8871 43.8532 22.5677C43.3352 22.2537 42.6749 22.0913 41.8723 22.0913C41.3372 22.0913 40.8818 22.1887 40.5061 22.3728C40.1247 22.5623 39.8288 22.8871 39.6181 23.3472C39.4189 23.8128 39.3221 24.4625 39.3221 25.2962C39.3221 26.5088 39.3335 27.4725 39.3677 28.1763C39.4132 28.8854 39.5043 29.4052 39.6409 29.7354C39.7775 30.071 39.9881 30.2876 40.2784 30.385C40.5801 30.4879 40.9843 30.5366 41.4852 30.5366C41.9064 30.5366 42.2821 30.4446 42.6009 30.2551C42.931 30.071 43.2441 29.8383 43.5344 29.5622C43.819 29.2752 44.1093 28.9937 44.3996 28.7176C44.6842 28.4307 44.9973 28.1925 45.3332 28.003C45.6633 27.8189 46.0447 27.7215 46.4716 27.7215C47.0921 27.7215 47.5873 27.911 47.9516 28.2845C48.3273 28.6635 48.5948 29.167 48.7485 29.8004C48.8965 30.4392 48.9762 31.143 48.9762 31.9225C48.9762 32.5884 48.9193 33.2164 48.8168 33.8065C48.7257 34.402 48.5265 34.8784 48.2248 35.2357C47.9345 35.5984 47.5076 35.7771 46.9498 35.7771C46.5854 35.7771 46.2667 35.7121 45.9935 35.5822C45.7316 35.4523 45.4698 35.2898 45.1965 35.0841C44.9347 34.8838 44.6387 34.6835 44.3085 34.4778C43.9727 34.2775 43.5629 34.1097 43.079 33.9797C42.6066 33.839 42.0146 33.7632 41.303 33.7632C40.8932 33.7632 40.5574 33.7957 40.3012 33.8498C40.0564 33.9093 39.8686 34.0339 39.732 34.2179C39.5954 34.4074 39.4929 34.7106 39.436 35.1274C39.3904 35.5497 39.3677 36.1344 39.3677 36.8815C39.3677 39.1065 39.6637 40.8172 40.2557 42.0136C40.859 43.1992 41.9178 43.7893 43.4206 43.7893C44.0581 43.7893 44.5932 43.6973 45.0372 43.5078C45.4755 43.3075 45.8625 43.0531 46.1984 42.7499C46.5285 42.4467 46.8587 42.1219 47.1774 41.7754C47.4621 41.4614 47.7581 41.1583 48.0654 40.8659C48.3842 40.579 48.7314 40.3462 49.1128 40.173C49.5056 39.9889 49.978 39.8915 50.5245 39.8915C51.0368 39.8915 51.5092 40.0376 51.9362 40.3246C52.3574 40.6007 52.6989 40.9742 52.9608 41.4506C53.2169 41.9162 53.3478 42.4359 53.3478 43.0098C53.3478 44.0221 53.1885 44.8667 52.8697 45.5434C52.5509 46.2093 51.9817 46.729 51.162 47.1025C50.3423 47.4761 49.1811 47.7359 47.6784 47.8821C46.187 48.0391 44.2687 48.1203 41.9178 48.1203Z" fill="#EC83A8"/>
<path d="M63.9317 39.22H58.4216C56.2187 39.22 55.1201 38.3701 55.1201 36.6648C55.1201 36.118 55.325 35.6578 55.7349 35.2789C56.1447 34.9053 56.6969 34.6238 57.397 34.4343C58.0915 34.2503 58.877 34.1528 59.7422 34.1528H65.2523C66.3452 34.1528 67.1706 34.3694 67.7341 34.8025C68.292 35.2247 68.5766 35.8419 68.5766 36.6648C68.5766 37.2278 68.3717 37.6988 67.9618 38.0723C67.552 38.4513 66.9941 38.7382 66.2997 38.9385C65.5995 39.128 64.8083 39.22 63.9317 39.22Z" fill="#EC83A8"/>
<path d="M79.2463 48.0337C76.4685 48.0337 74.3339 47.8279 72.8482 47.4273C71.3739 47.0267 70.6396 46.2742 70.6396 45.1752C70.6396 44.6718 70.7136 44.1737 70.8673 43.6811C71.0324 43.1938 71.3113 42.5442 71.7098 41.7321C72.1026 40.9255 72.4213 40.1892 72.6661 39.5233C72.9052 38.8629 73.0816 38.2186 73.1898 37.5961C73.2922 36.9789 73.3492 36.313 73.3492 35.6038V32.3773C73.3492 31.3541 73.2865 30.4229 73.167 29.5838C73.0418 28.7339 72.8539 27.9489 72.5978 27.2234C72.3359 26.4872 71.9944 25.7455 71.5732 24.993C71.2203 24.3434 70.9812 23.8236 70.8446 23.4339C70.708 23.0332 70.6396 22.611 70.6396 22.1779C70.6396 21.2251 71.0324 20.4455 71.8236 19.8392C72.6092 19.2328 73.6907 18.7889 75.0568 18.4966C76.4344 18.2096 78.0054 18.0635 79.77 18.0635C82.3657 18.0635 84.6426 18.4424 86.6007 19.1895C88.5588 19.9258 90.1868 20.9598 91.496 22.2862C92.8166 23.6179 93.8071 25.1662 94.4788 26.9419C95.1448 28.7176 95.4806 30.6449 95.4806 32.7238C95.4806 35.3386 95.1903 37.6069 94.6154 39.5233C94.0519 41.4452 93.1354 43.0422 91.8603 44.309C90.5853 45.565 88.9061 46.507 86.8284 47.1242C84.7621 47.7305 82.2348 48.0337 79.2463 48.0337ZM82.9577 43.3779C84.6255 43.3779 85.9176 42.5063 86.8284 40.7577C87.7505 38.9982 88.2173 36.3834 88.2173 32.9186C88.2173 30.8398 87.9213 29.0587 87.3293 27.5699C86.7373 26.0866 85.9233 24.9389 84.893 24.1268C83.8741 23.3202 82.7129 22.9141 81.4094 22.9141C80.8743 22.9141 80.4189 23.017 80.0432 23.2173C79.6619 23.4068 79.3659 23.7803 79.1552 24.3434C78.956 24.8956 78.8593 25.7076 78.8593 26.7903C78.8593 27.3263 78.8593 27.9759 78.8593 28.7393C78.8593 29.4918 78.8593 30.2876 78.8593 31.1213C78.8706 31.9604 78.882 32.7995 78.882 33.6333C78.8934 34.4561 78.9048 35.2249 78.9048 35.9287C78.9048 36.6216 78.9048 37.1955 78.9048 37.6394C78.9048 39.7182 79.2349 41.2016 79.9066 42.0786C80.5726 42.9448 81.5915 43.3779 82.9577 43.3779Z" fill="#EC83A8"/>
<path d="M105.633 48.1203C104.495 48.1203 103.436 47.9037 102.468 47.4706C101.495 47.0538 100.647 46.4529 99.9182 45.6733C99.201 44.8937 98.6488 43.9788 98.2561 42.9231C97.8576 41.8729 97.6641 40.7089 97.6641 39.4367C97.6641 38.2674 97.8348 37.1197 98.1877 35.9936C98.5521 34.8676 99.0587 33.8173 99.7133 32.832C100.362 31.8521 101.136 30.9859 102.036 30.2334C102.946 29.4701 103.948 28.88 105.041 28.4577C106.146 28.0247 107.318 27.8081 108.548 27.8081C109.441 27.8081 110.147 27.9489 110.665 28.2195C111.195 28.4794 111.644 28.7393 112.009 28.9991C112.265 29.1886 112.515 29.3564 112.76 29.4972C112.999 29.6271 113.261 29.6921 113.534 29.6921C113.881 29.6921 114.154 29.6163 114.354 29.4539C114.564 29.2969 114.752 29.1074 114.923 28.8908C115.151 28.6472 115.412 28.409 115.72 28.1762C116.022 27.9326 116.517 27.8081 117.2 27.8081C117.428 27.8081 117.661 27.8622 117.906 27.9597C118.162 28.0625 118.39 28.2304 118.589 28.4577C118.782 28.6905 118.885 28.9937 118.885 29.3672C118.885 29.7137 118.851 30.0061 118.794 30.2334C118.731 30.45 118.657 30.6774 118.566 30.9047C118.486 31.1213 118.407 31.3811 118.316 31.6843C118.236 31.9875 118.162 32.3773 118.088 32.8537C118.008 33.3301 117.94 33.9364 117.883 34.6727C117.837 35.3981 117.815 36.313 117.815 37.4228C117.815 38.3919 117.86 39.1931 117.951 39.8265C118.054 40.4653 118.179 40.985 118.316 41.3856C118.464 41.7754 118.623 42.0948 118.794 42.3385C118.976 42.5875 119.147 42.804 119.317 42.9881C119.528 43.2046 119.693 43.432 119.818 43.6594C119.955 43.8922 120.023 44.2332 120.023 44.6772C120.023 45.1969 119.864 45.6733 119.545 46.1064C119.238 46.5286 118.839 46.886 118.338 47.1891C117.849 47.4923 117.319 47.7197 116.744 47.8821C116.164 48.0391 115.595 48.1203 115.037 48.1203C114.354 48.1203 113.864 48.0012 113.58 47.7738C113.289 47.541 113.113 47.2487 113.056 46.886C112.993 46.5286 112.965 46.1443 112.965 45.7383C112.965 45.2943 112.885 44.9912 112.737 44.8288C112.601 44.6718 112.441 44.5905 112.259 44.5905C112.014 44.5905 111.781 44.6934 111.553 44.8937C111.337 45.0832 111.103 45.3214 110.847 45.6083C110.54 45.9548 110.17 46.3229 109.732 46.7127C109.288 47.1025 108.741 47.4381 108.092 47.7088C107.438 47.9795 106.618 48.1203 105.633 48.1203ZM107.591 43.3346C108.303 43.3346 108.98 43.1397 109.618 42.7499C110.267 42.3493 110.847 41.7917 111.348 41.0825C111.849 40.3787 112.242 39.5612 112.532 38.6355C112.817 37.7152 112.965 36.7299 112.965 35.6904C112.965 34.2775 112.635 33.211 111.986 32.4855C111.348 31.7493 110.494 31.3811 109.436 31.3811C108.627 31.3811 107.91 31.576 107.273 31.9658C106.635 32.3556 106.094 32.8916 105.656 33.5683C105.212 34.2342 104.882 34.9867 104.654 35.8204C104.426 36.6432 104.313 37.4986 104.313 38.3756C104.313 39.2418 104.415 40.0539 104.631 40.801C104.859 41.5535 105.206 42.1652 105.679 42.6416C106.163 43.1072 106.8 43.3346 107.591 43.3346Z" fill="#EC83A8"/>
<path d="M126.918 48.1202C126.218 48.1202 125.575 48.0174 124.983 47.817C124.402 47.6113 123.936 47.2973 123.571 46.8642C123.207 46.4311 123.025 45.8681 123.025 45.1752C123.025 44.7312 123.099 44.3252 123.253 43.9625C123.401 43.589 123.594 43.2262 123.822 42.8798C123.987 42.5928 124.152 42.2843 124.323 41.9486C124.505 41.6184 124.664 41.2015 124.801 40.6926C124.949 40.1892 125.074 39.5612 125.165 38.8087C125.268 38.0616 125.325 37.1358 125.325 36.0369V32.9619C125.325 32.5883 125.239 32.3122 125.074 32.139C124.903 31.9658 124.687 31.8521 124.414 31.7925C124.141 31.7221 123.85 31.6626 123.549 31.6193C123.213 31.5922 122.888 31.5435 122.569 31.4677C122.251 31.3973 121.983 31.2457 121.773 31.013C121.573 30.7856 121.477 30.4174 121.477 29.9086C121.477 29.6054 121.551 29.3672 121.704 29.194C121.869 29.0099 122.08 28.8366 122.342 28.6742C122.598 28.501 122.894 28.2953 123.23 28.0463C123.577 27.7864 123.941 27.4507 124.323 27.0285C124.715 26.5954 125.108 26.0215 125.507 25.2961C125.945 24.4732 126.304 23.7586 126.577 23.1523C126.85 22.5459 127.146 22.0858 127.465 21.7664C127.795 21.4361 128.245 21.2683 128.808 21.2683C129.292 21.2683 129.639 21.3928 129.856 21.6364C130.083 21.8855 130.22 22.2428 130.265 22.7192C130.322 23.1956 130.356 23.7911 130.356 24.4949C130.356 25.334 130.345 25.9999 130.334 26.4871C130.334 26.9798 130.368 27.3479 130.448 27.5915C130.522 27.8243 130.698 27.9759 130.971 28.0463C131.244 28.122 131.654 28.1545 132.201 28.1545C132.565 28.1545 132.918 28.1924 133.271 28.2628C133.618 28.3223 133.897 28.4685 134.113 28.6959C134.341 28.9124 134.455 29.2589 134.455 29.7353C134.455 30.2983 134.347 30.7044 134.136 30.948C133.937 31.197 133.669 31.354 133.339 31.4244C133.02 31.4839 132.685 31.5273 132.337 31.5543C131.973 31.5706 131.614 31.6193 131.267 31.7059C130.931 31.7817 130.658 31.9441 130.448 32.204C130.231 32.4638 130.129 32.8915 130.129 33.4816V36.0369C130.129 36.5891 130.14 37.2225 130.174 37.9425C130.22 38.6679 130.334 39.4312 130.516 40.2379C130.698 41.0499 131.005 41.8403 131.449 42.6199C131.614 42.896 131.768 43.1938 131.905 43.5077C132.041 43.8109 132.11 44.1736 132.11 44.5905C132.11 45.1535 131.956 45.6624 131.654 46.1063C131.364 46.5394 130.971 46.9075 130.47 47.2107C129.969 47.5139 129.406 47.7358 128.785 47.882C128.159 48.039 127.539 48.1202 126.918 48.1202Z" fill="#EC83A8"/>
<path d="M145.484 48.1203C144.13 48.1203 142.872 47.9308 141.705 47.5573C140.532 47.1837 139.508 46.6369 138.631 45.9115C137.766 45.1752 137.088 44.282 136.605 43.2263C136.115 42.1598 135.876 40.9417 135.876 39.5666C135.876 38.4135 136.047 37.2712 136.4 36.1452C136.764 35.0083 137.276 33.9364 137.948 32.9403C138.631 31.9442 139.451 31.0671 140.407 30.2984C141.363 29.5188 142.433 28.9125 143.617 28.4794C144.801 28.0355 146.082 27.8081 147.465 27.8081C148.923 27.8081 150.181 28.0788 151.245 28.6093C152.321 29.129 153.146 29.822 153.727 30.6882C154.302 31.5436 154.598 32.4747 154.615 33.4817C154.626 34.3912 154.484 35.1653 154.182 35.7987C153.892 36.4375 153.499 36.9681 152.998 37.4012C152.497 37.8234 151.917 38.1591 151.268 38.4189C150.613 38.6788 149.936 38.8953 149.241 39.0686C148.558 39.231 147.898 39.3826 147.26 39.5233C146.543 39.6533 145.894 39.7994 145.302 39.9564C144.722 40.1026 144.244 40.3029 143.868 40.5628C143.504 40.8118 143.304 41.1474 143.276 41.5805C143.23 42.333 143.492 42.8961 144.073 43.2696C144.648 43.6486 145.354 43.8326 146.19 43.8326C147.147 43.8326 147.944 43.7189 148.581 43.4862C149.219 43.2588 149.748 42.9773 150.175 42.6416C150.613 42.3114 150.995 41.9811 151.313 41.6455C151.632 41.299 151.939 41.0121 152.247 40.7793C152.549 40.5519 152.896 40.4328 153.294 40.4328C153.596 40.4328 153.886 40.5411 154.159 40.7577C154.433 40.9742 154.569 41.2882 154.569 41.6888C154.569 42.3547 154.347 43.0639 153.909 43.811C153.465 44.5472 152.845 45.251 152.042 45.9115C151.234 46.5611 150.272 47.0917 149.15 47.4923C148.04 47.9091 146.816 48.1203 145.484 48.1203ZM144.505 37.3795C145.018 37.3795 145.576 37.2604 146.168 37.0114C146.771 36.7515 147.34 36.4159 147.875 35.9936C148.405 35.5768 148.837 35.1058 149.173 34.586C149.503 34.0555 149.674 33.5141 149.674 32.9619C149.674 32.3556 149.458 31.9333 149.036 31.6843C148.627 31.4245 148.086 31.2945 147.42 31.2945C146.839 31.2945 146.281 31.4245 145.735 31.6843C145.2 31.9442 144.722 32.3015 144.3 32.7454C143.891 33.1785 143.561 33.6657 143.321 34.1963C143.094 34.7322 142.98 35.2898 142.98 35.8637C142.98 36.876 143.487 37.3795 144.505 37.3795Z" fill="#EC83A8"/>
<path d="M170.722 27.8081C171.661 27.8081 172.475 27.9813 173.159 28.3278C173.842 28.6635 174.399 29.1182 174.843 29.6921C175.282 30.2551 175.606 30.9047 175.822 31.641C176.05 32.3664 176.164 33.1135 176.164 33.8931C176.164 34.7485 176.005 35.4847 175.686 36.1019C175.367 36.7082 174.94 37.1792 174.411 37.5094C173.876 37.8451 173.295 38.0075 172.658 38.0075C171.929 38.0075 171.291 37.8343 170.745 37.4878C170.199 37.1305 169.914 36.5891 169.903 35.8637C169.914 35.5064 169.959 35.214 170.039 34.9975C170.113 34.7809 170.153 34.5373 170.153 34.2612C170.153 33.8011 169.948 33.4546 169.538 33.2218C169.14 32.9782 168.701 32.8537 168.218 32.8537C167.535 32.8537 166.88 33.0648 166.26 33.4817C165.633 33.9039 165.121 34.4994 164.711 35.279C164.301 36.0586 164.096 37.0006 164.096 38.0941C164.096 38.7762 164.199 39.5017 164.415 40.2812C164.643 41.05 164.984 41.8296 165.44 42.62C165.696 43.0097 165.878 43.3562 165.986 43.6594C166.089 43.9626 166.146 44.2766 166.146 44.5905C166.146 45.2564 165.907 45.8574 165.44 46.3879C164.984 46.9076 164.358 47.3299 163.573 47.6439C162.782 47.9579 161.899 48.1203 160.932 48.1203C159.731 48.1203 158.78 47.8658 158.085 47.3624C157.385 46.8426 157.038 46.1443 157.038 45.2618C157.038 44.4714 157.317 43.6756 157.881 42.8798C158.393 42.1327 158.769 41.3315 158.996 40.4761C159.224 39.6262 159.338 38.6355 159.338 37.5094C159.338 36.4592 159.235 35.6146 159.042 34.9758C158.843 34.3424 158.484 33.7415 157.972 33.1785C157.653 32.8049 157.414 32.4747 157.266 32.1824C157.112 31.8954 157.038 31.5869 157.038 31.2512C157.038 30.6449 157.271 30.0819 157.744 29.5621C158.211 29.0424 158.825 28.6256 159.588 28.3062C160.362 27.9759 161.188 27.8081 162.07 27.8081C162.673 27.8081 163.123 27.8947 163.413 28.068C163.698 28.2412 163.88 28.5011 163.96 28.8475C164.051 29.1832 164.096 29.5784 164.096 30.0385C164.096 30.9914 164.449 31.4678 165.167 31.4678C165.44 31.4678 165.69 31.3487 165.918 31.0996C166.146 30.856 166.385 30.5528 166.647 30.1901C166.903 29.8166 167.204 29.4485 167.557 29.0857C167.905 28.7284 168.337 28.4253 168.855 28.1762C169.367 27.9326 169.994 27.8081 170.722 27.8081Z" fill="#EC83A8"/>
<mask id="mask0_271_1086" style="mask-type:luminance" maskUnits="userSpaceOnUse" x="77" y="54" width="12" height="12">
<path d="M77.4434 54.3049H88.2188V65.7386H77.4434V54.3049Z" fill="white"/>
</mask>
<g mask="url(#mask0_271_1086)">
<path d="M87.8435 60.1625C84.1834 60.7472 83.4491 61.5376 82.9027 65.4679C82.8742 65.6682 82.6067 65.6682 82.5782 65.4679C82.0318 61.5376 81.2975 60.7472 77.6373 60.1625C77.4438 60.13 77.4438 59.8431 77.6373 59.8106C81.2975 59.226 82.0318 58.4355 82.5782 54.5052C82.6067 54.3049 82.8742 54.3049 82.9027 54.5052C83.4491 58.4355 84.1834 59.226 87.8435 59.8106C88.0314 59.8431 88.0314 60.13 87.8435 60.1625Z" fill="white"/>
</g>
<mask id="mask1_271_1086" style="mask-type:luminance" maskUnits="userSpaceOnUse" x="183" y="54" width="13" height="13">
<path d="M183.318 54.5269H195.34V67H183.318V54.5269Z" fill="white"/>
</mask>
<g mask="url(#mask1_271_1086)">
<path d="M195.045 61.1316C190.918 61.7921 190.087 62.6853 189.472 67.1137C189.443 67.3411 189.136 67.3411 189.108 67.1137C188.493 62.6853 187.662 61.7921 183.535 61.1316C183.324 61.0991 183.324 60.7689 183.535 60.7364C187.662 60.0813 188.493 59.1881 189.108 54.7543C189.136 54.5269 189.443 54.5269 189.472 54.7543C190.087 59.1881 190.918 60.0813 195.045 60.7364C195.255 60.7689 195.255 61.0991 195.045 61.1316Z" fill="white"/>
</g>
<mask id="mask2_271_1086" style="mask-type:luminance" maskUnits="userSpaceOnUse" x="178" y="11" width="11" height="12">
<path d="M178.566 11.8506H188.38V22.2449H178.566V11.8506Z" fill="white"/>
</mask>
<g mask="url(#mask2_271_1086)">
<path d="M187.919 17.1398C184.618 17.665 183.952 18.3796 183.462 21.9201C183.44 22.1042 183.195 22.1042 183.166 21.9201C182.677 18.3796 182.011 17.665 178.715 17.1398C178.544 17.1128 178.544 16.8475 178.715 16.8204C182.011 16.2953 182.677 15.5807 183.166 12.0401C183.195 11.8561 183.44 11.8561 183.462 12.0401C183.952 15.5807 184.618 16.2953 187.919 16.8204C188.09 16.8475 188.09 17.1128 187.919 17.1398Z" fill="white"/>
</g>
<mask id="mask3_271_1086" style="mask-type:luminance" maskUnits="userSpaceOnUse" x="202" y="54" width="9" height="10">
<path d="M202.074 54.5269H210.624V63.8817H202.074V54.5269Z" fill="white"/>
</mask>
<g mask="url(#mask3_271_1086)">
<path d="M210.374 59.2096C207.454 59.6752 206.862 60.3086 206.429 63.4431C206.406 63.6055 206.19 63.6055 206.167 63.4431C205.734 60.3086 205.148 59.6752 202.222 59.2096C202.074 59.1826 202.074 58.9498 202.222 58.9281C205.148 58.4625 205.734 57.8291 206.167 54.6892C206.19 54.5268 206.406 54.5268 206.429 54.6892C206.862 57.8291 207.454 58.4625 210.374 58.9281C210.527 58.9498 210.527 59.1826 210.374 59.2096Z" fill="white"/>
</g>
<mask id="mask4_271_1086" style="mask-type:luminance" maskUnits="userSpaceOnUse" x="120" y="2" width="14" height="16">
<path d="M120.704 2.6311H133.819V17.1831H120.704V2.6311Z" fill="white"/>
</mask>
<g mask="url(#mask4_271_1086)">
<path d="M133.819 10.0209C129.203 10.7572 128.269 11.7533 127.586 16.7122C127.552 16.9667 127.211 16.9667 127.171 16.7122C126.488 11.7587 125.554 10.7572 120.938 10.0209C120.704 9.98301 120.704 9.61487 120.938 9.57698C125.554 8.84072 126.488 7.8446 127.171 2.88566C127.211 2.63121 127.552 2.63121 127.586 2.88566C128.269 7.83918 129.203 8.84072 133.819 9.57698C134.058 9.61487 134.058 9.98301 133.819 10.0209Z" fill="white"/>
</g>
<mask id="mask5_271_1086" style="mask-type:luminance" maskUnits="userSpaceOnUse" x="267" y="59" width="8" height="7">
<path d="M267.929 59.0745H274.486V65.311H267.929V59.0745Z" fill="white"/>
</mask>
<g mask="url(#mask5_271_1086)">
<path d="M273.968 62.4796C271.845 62.8207 271.413 63.2809 271.1 65.56C271.083 65.6791 270.923 65.6791 270.912 65.56C270.593 63.2809 270.166 62.8207 268.037 62.4796C267.929 62.4634 267.929 62.2956 268.037 62.2793C270.166 61.9383 270.593 61.4781 270.912 59.1989C270.923 59.0798 271.083 59.0798 271.1 59.1989C271.413 61.4781 271.845 61.9383 273.968 62.2793C274.077 62.2956 274.077 62.4634 273.968 62.4796Z" fill="white"/>
</g>
<mask id="mask6_271_1086" style="mask-type:luminance" maskUnits="userSpaceOnUse" x="70" y="6" width="8" height="7">
<path d="M70.7314 6.50195H77.2775V12.7385H70.7314V6.50195Z" fill="white"/>
</mask>
<g mask="url(#mask6_271_1086)">
<path d="M76.76 9.90717C74.6368 10.2428 74.2042 10.703 73.8911 12.9876C73.8741 13.1067 73.7204 13.1067 73.7033 12.9876C73.3845 10.703 72.9576 10.2428 70.8344 9.90717C70.7206 9.89093 70.7206 9.71769 70.8344 9.70145C72.9576 9.36581 73.3845 8.90564 73.7033 6.62106C73.7204 6.50196 73.8741 6.50196 73.8911 6.62106C74.2042 8.90564 74.6368 9.36581 76.76 9.70145C76.8682 9.71769 76.8682 9.89093 76.76 9.90717Z" fill="white"/>
</g>
<mask id="mask7_271_1086" style="mask-type:luminance" maskUnits="userSpaceOnUse" x="312" y="58" width="8" height="7">
<path d="M312.687 58.0078H319.244V64.2444H312.687V58.0078Z" fill="white"/>
</mask>
<g mask="url(#mask7_271_1086)">
<path d="M318.721 61.4131C316.597 61.7542 316.17 62.2144 315.852 64.4935C315.835 64.6126 315.681 64.6126 315.664 64.4935C315.351 62.2144 314.918 61.7542 312.795 61.4131C312.687 61.3969 312.687 61.2291 312.795 61.2128C314.918 60.8718 315.351 60.4116 315.664 58.127C315.681 58.0133 315.835 58.0133 315.852 58.127C316.17 60.4116 316.597 60.8718 318.721 61.2128C318.834 61.2291 318.834 61.3969 318.721 61.4131Z" fill="white"/>
</g>
<mask id="mask8_271_1086" style="mask-type:luminance" maskUnits="userSpaceOnUse" x="150" y="58" width="8" height="7">
<path d="M150.912 58.0078H157.47V64.2444H150.912V58.0078Z" fill="white"/>
</mask>
<g mask="url(#mask8_271_1086)">
<path d="M156.952 61.4131C154.823 61.7542 154.396 62.2144 154.077 64.4935C154.066 64.6126 153.907 64.6126 153.889 64.4935C153.576 62.2144 153.144 61.7542 151.021 61.4131C150.912 61.3969 150.912 61.2291 151.021 61.2128C153.144 60.8718 153.576 60.4116 153.889 58.127C153.907 58.0133 154.066 58.0133 154.077 58.127C154.396 60.4116 154.823 60.8718 156.952 61.2128C157.06 61.2291 157.06 61.3969 156.952 61.4131Z" fill="white"/>
</g>
<mask id="mask9_271_1086" style="mask-type:luminance" maskUnits="userSpaceOnUse" x="232" y="6" width="8" height="7">
<path d="M232.58 6.50195H239.138V12.7385H232.58V6.50195Z" fill="white"/>
</mask>
<g mask="url(#mask9_271_1086)">
<path d="M238.614 9.90717C236.491 10.2428 236.064 10.703 235.745 12.9876C235.728 13.1067 235.575 13.1067 235.557 12.9876C235.244 10.703 234.812 10.2428 232.689 9.90717C232.58 9.89093 232.58 9.71769 232.689 9.70145C234.812 9.36581 235.244 8.90564 235.557 6.62106C235.575 6.50196 235.728 6.50196 235.745 6.62106C236.064 8.90564 236.491 9.36581 238.614 9.70145C238.728 9.71769 238.728 9.89093 238.614 9.90717Z" fill="white"/>
</g>
<mask id="mask10_271_1086" style="mask-type:luminance" maskUnits="userSpaceOnUse" x="9" y="52" width="10" height="11">
<path d="M9.13086 52.3938H18.9671V62.7881H9.13086V52.3938Z" fill="white"/>
</mask>
<g mask="url(#mask10_271_1086)">
<path d="M18.2553 57.5368C15.0449 58.0457 14.3959 58.7441 13.9178 62.1872C13.895 62.3658 13.6559 62.3658 13.6332 62.1872C13.155 58.7441 12.5118 58.0457 9.29568 57.5368C9.13061 57.5097 9.13061 57.2553 9.29568 57.2282C12.5118 56.7139 13.155 56.021 13.6332 52.5725C13.6559 52.3938 13.895 52.3938 13.9178 52.5725C14.3959 56.021 15.0449 56.7139 18.2553 57.2282C18.4204 57.2553 18.4204 57.5097 18.2553 57.5368Z" fill="white"/>
</g>
<mask id="mask11_271_1086" style="mask-type:luminance" maskUnits="userSpaceOnUse" x="0" y="0" width="19" height="20">
<path d="M0 0H18.2721V19.7491H0V0Z" fill="white"/>
</mask>
<g mask="url(#mask11_271_1086)">
<path d="M17.9305 10.102C11.6178 11.1035 10.3428 12.4732 9.40922 19.2511C9.35799 19.5976 8.89123 19.5976 8.84569 19.2511C7.90647 12.4732 6.6371 11.1035 0.324398 10.102C-5.97231e-05 10.0479 -5.97231e-05 9.54439 0.324398 9.49566C6.6371 8.48872 7.90647 7.12447 8.84569 0.346527C8.89123 5.088e-05 9.35799 5.088e-05 9.40922 0.346527C10.3428 7.12447 11.6178 8.48872 17.9305 9.49566C18.255 9.54439 18.255 10.0479 17.9305 10.102Z" fill="white"/>
</g>
</svg>
